<?xml version="1.0" encoding="utf-8"?>
<!-- Generator: Adobe Illustrator 16.2.1, SVG Export Plug-In . SVG Version: 6.00 Build 0)  -->
<!DOCTYPE svg PUBLIC "-//W3C//DTD SVG 1.1//EN" "http://www.w3.org/Graphics/SVG/1.1/DTD/svg11.dtd">
<svg version="1.1" id="Layer_1" xmlns="http://www.w3.org/2000/svg" xmlns:xlink="http://www.w3.org/1999/xlink" x="0px" y="0px"
	 width="700px" height="366.438px" viewBox="0 0 700 366.438" enable-background="new 0 0 700 366.438" xml:space="preserve">
<g>
	<polyline fill="#989898" points="540.213,173.023 451.825,182.364 456.824,202.619 533.339,202.619 535.839,183.955 	"/>
	<path fill="#CCCBCB" d="M517.097,179.952c0,0-19.573,58.453-9.075,95.208c0,0-5.44,74.256-3.097,79.508h33.842
		c0,0,5.16-72.009,7.833-69.761c2.676,2.252,14.501,3.749,18.337,2.252c3.838-1.501,12.839,67.509,12.839,67.509h32.254
		l-3.75-82.512c0,0,8.907-47.898-3.047-92.205c0,0,69.82,4.448,48.067,62.953c0,0,15.825-5.041,16.35-21.557
		c0.53-16.768,11.953-51.172-31.551-61.266c0,0-9.312-3.055-30.818-4.744C583.777,153.645,517.097,179.952,517.097,179.952z"/>
	<path fill="#989898" d="M505.618,235.121h103.825c0,0-0.402,12.147-0.632,15.156c-0.228,3.005-103.884,0-103.884,0L505.618,235.121
		z"/>
	<rect x="580.633" y="199.778" fill="#C99977" width="39.308" height="47.256"/>
	<path fill="#989898" d="M672.273,222.803c0,8.311-15.761,20.567-25.723,20.567c-9.963,0-18.04-6.738-18.04-15.052
		c0,0,29.731-1.407,21.017-23.799c-8.714-22.385,15.062,22.375,15.062,22.375"/>
	<polygon fill="#D6A47B" points="619.94,198.562 666.659,160.354 666.659,202.745 619.94,247.034 	"/>
	<polygon fill="#E9B280" points="580.633,199.778 627.294,160.354 666.659,160.354 619.94,199.778 	"/>
	<path fill="#989898" d="M598.581,180.067c0,0,66.72,5.521,52.216,56.345l24.425-28.231c0,0,6.098-44.886-53.69-50.892
		C562.385,151.34,598.581,180.067,598.581,180.067z"/>
	<polygon fill="#DCA97F" points="580.633,199.778 598.495,223.979 619.94,199.778 	"/>
	<path fill="#989898" d="M670.271,228.598c0,0,15.049-22.959-1.295-46.892l-6.823,20.279l-5.003,32.277L670.271,228.598z"/>
	<polygon fill="#FFCC67" points="546.408,58.266 551.043,25.211 561.742,36.973 577.744,24.928 584.411,42.265 598.749,36.098 
		588.515,68.854 	"/>
	<circle opacity="0.2" fill="#0C0D0D" enable-background="new    " cx="554.243" cy="125.179" r="71.01"/>
	<path fill="#CCCBCB" d="M625.252,120.345c0,39.214-31.793,71.014-71.009,71.014c-39.217,0-71.01-31.8-71.01-71.014
		c0-39.217,31.793-71.01,71.01-71.01C593.459,49.334,625.252,81.127,625.252,120.345z"/>
	<path opacity="0.8" fill="#FFFFFF" enable-background="new    " d="M537.238,161.184c35.883-1.29,65.012-19.03,65.012-42.504
		c0-23.479-29.108-42.507-65.012-42.507c0,0-31.318-0.966-39.58,1.268c0,0-33.697,41.088-2.808,81.833
		C494.851,159.271,514.069,162.015,537.238,161.184z"/>
	<path fill="#F6DDA5" d="M509.903,160.719c68.84,8.63,88.678-27.54,88.678-27.54c0-27.158-19.852-49.172-44.341-49.172
		c-24.486,0-44.337,22.015-44.337,49.172v27.157"/>
	<path fill="#FFCC67" d="M509.903,160.336"/>
	<path fill="#FFCC67" d="M509.903,160.336"/>
	<circle fill="#474847" cx="529.902" cy="125.179" r="5.167"/>
	<circle fill="#474847" cx="565.245" cy="125.179" r="5.167"/>
	<path opacity="0.6" fill="#333333" enable-background="new    " d="M528.404,148.958c0,0,20.738,4.458,39.589,0H528.404z"/>
	<path fill="#C6C5C5" d="M440.895,182.753c-3.385,2.796-1.684,6.017,1.444,11.188c3.132,5.177,0.243,7.345,4.817,9.754
		c4.573,2.405,10.83-1.205,10.83-1.205l5.295-19.735C463.281,182.753,451.968,173.602,440.895,182.753z"/>
	<polygon fill="#E6E6E6" points="463.281,350.492 446.117,10.442 439.039,10.442 457.121,350.492 	"/>
	<circle fill="#FFCC67" cx="442.84" cy="29.202" r="21.111"/>
	<polygon fill="#F2F2F2" points="432.521,36.611 431.783,23.713 442.425,16.628 453.803,22.44 454.543,35.338 443.899,42.424 	"/>
	<path fill="#E25626" d="M577.775,354.668l-2.688-19.317h34.064l0.373,8.19c0,0,12.616-10.051,18.121,3.448
		c0,0,2.498,5.923-1.002,7.679C623.143,356.415,577.775,354.668,577.775,354.668z"/>
	<path fill="#E25626" d="M538.767,354.668l1.496-19.317h-35.708l-0.066,8.19c0,0-13.301-10.051-19.102,3.448
		c0,0-2.634,5.923,1.054,7.679C490.131,356.415,538.767,354.668,538.767,354.668z"/>
	<circle fill="#E25626" cx="545.139" cy="241.972" r="15.077"/>
	<polyline fill="#B7B7B7" points="545.196,252.943 535.567,247.481 535.485,236.412 545.036,230.803 554.663,236.271 
		554.745,247.34 545.196,252.943 	"/>
	<polygon fill="#EDECED" points="545.122,241.43 554.663,236.271 545.036,230.803 535.485,236.412 	"/>
	<polyline fill="#D1D1CF" points="545.196,252.943 535.567,247.481 535.485,236.412 545.122,241.43 545.196,252.943 	"/>
	<path fill="#989898" d="M664.294,225.812c0,0-26.069-43.467-16.206-21.56c0,0,4.843,12.808-3.821,19.757
		C635.605,230.965,664.294,225.812,664.294,225.812z"/>
	<path fill="#C6C5C5" d="M461.37,182.612c-1.136,1.814-4.467,1.771-7.438-0.089c-2.97-1.867-4.453-4.848-3.317-6.664
		c1.139-1.812,4.47-1.771,7.441,0.09C461.026,177.815,462.512,180.797,461.37,182.612z"/>
	<ellipse fill="#C6C5C5" cx="451.825" cy="195.23" rx="6.351" ry="3.876"/>
	<ellipse fill="#C6C5C5" cx="452.033" cy="200.373" rx="6.349" ry="3.877"/>
	<path fill="#C6C5C5" d="M445.686,179.848c0,0,8.377-1.881,12.49,5.454c4.111,7.333-2.389,1.833-0.89,3.667
		c1.502,1.834-1.664,4.501-1.664,4.501l-3.001,2.719l-5.837-1.887l-1.311-8.669L445.686,179.848z"/>
	<polygon fill="#C6C5C5" points="463.281,182.753 460.434,178.041 458.176,179.235 460.731,183.943 	"/>
	<path fill="#C6C5C5" d="M645.585,222.803l0.966,20.567c0,0-8.8,0.768-15.293-7.063L645.585,222.803z"/>
	<polygon fill="#F7DDC4" points="504.555,335.351 504.811,328.652 540.823,328.652 540.263,335.351 	"/>
	<polygon fill="#F7DDC4" points="575.087,335.351 574.088,328.652 608.848,328.652 609.151,335.351 	"/>
	<path opacity="0.03" fill="#020202" enable-background="new    " d="M564.937,287.159c0,0,16.055-0.177,24.13-5.682l9.515,73.8
		l-20.806-0.609C577.775,354.668,568.733,286.571,564.937,287.159z"/>
	<path opacity="0.04" fill="#020202" enable-background="new    " d="M538.767,354.668c0,0,6.052-76.834,7.833-69.761
		c0,0-10.719-2.679-14.72-8.427l-11.251,78.797L538.767,354.668z"/>
	<polygon opacity="0.02" enable-background="new    " points="557.624,25.181 560.077,39.627 570.413,23.183 561.742,29.708 	"/>
	<polygon opacity="0.02" enable-background="new    " points="581.371,34.826 584.411,42.735 592.546,39.235 579.885,51.619 	"/>
	<polygon opacity="0.1" fill="#CCCBCB" enable-background="new    " points="459.931,195.234 513.295,193.025 510.939,202.619 
		457.986,202.489 	"/>
	<path opacity="0.1" fill="#CCCBCB" enable-background="new    " d="M606.918,167.964c0,0,68.567,9.845,50.232,59.848
		c0,0-5.595,14.195-21.401,4.262l9.838-9.271c0,0,23.806-28.338-46.778-42.669l-2.819-2.344L606.918,167.964z"/>
</g>
<g>
	<path fill="#F6DDA5" d="M277.095,195.538c-80.59,10.101-103.811-32.243-103.811-32.243c0-31.791,23.237-57.564,51.905-57.564
		c28.667,0,51.905,25.773,51.905,57.564v31.792"/>
	<circle fill="#474847" cx="245.306" cy="152.755" r="6.049"/>
	<circle fill="#474847" cx="203.938" cy="152.755" r="6.049"/>
	<rect x="161.399" y="179.231" fill="#AFDEE2" width="128.788" height="127.855"/>
	<path fill="#AFDEE2" d="M283.998,280.594l45.075,10.966l-22.538,38.796l9.659,5.268c0,0,38.638,2.342,30.441,20.489h-53.271
		l-6.44-21.66l3.513-28.684l-48.559-14.209"/>
	<path fill="#AFDEE2" d="M167.867,280.594l-45.075,10.966l22.537,38.796l-9.659,5.268c0,0-38.638,2.342-30.441,20.489h53.271
		l6.44-21.66l-3.513-28.684l48.558-14.209"/>
	<rect x="161.38" y="189.543" fill="#E15726" width="128.789" height="91.995"/>
	<path fill="#F1B25F" d="M384.742,184.07l-1.033-11.006l-13.24,8.377l-232.864-9.149c0,0-117.244-61.202-118.459,1.602
		L384.742,184.07z"/>
	<path fill="#FFCC67" d="M384.216,177.917l1.263,14.196l-14.586-6.994l-233.015-3.8c0,0-120.46,54.596-118.185-8.178
		L384.216,177.917z"/>
	<polygon fill="#FCCB98" points="100.225,243.772 100.344,256.22 326.297,181.535 325.711,119.636 305.575,115.87 309.47,172.68 	
		"/>
	<polygon opacity="0.3" fill="#CB9866" enable-background="new    " points="316.593,117.932 305.575,115.87 309.47,172.68 
		109.281,240.695 108.662,246.25 319.242,176.024 	"/>
	<polyline fill="#EE3A39" points="306.497,130.915 325.887,138.369 326.081,158.661 308.279,155.33 306.497,130.915 	"/>
	<path fill="#333333" d="M100.573,260.908c1.951-2.19,2.339-5.383,2.339-5.383l8.968-2.965l0.224-12.681l-8.969,2.63
		c0,0,0.334-2.336-2.083-6.439l-2.29,0.258l-0.112,24.939L100.573,260.908z"/>
	<polyline opacity="0.4" fill="#F69668" enable-background="new    " points="233.673,200.488 226.841,202.304 225.499,212.349 
		234.307,210.087 233.673,200.488 	"/>
	<polyline opacity="0.4" fill="#F69668" enable-background="new    " points="247.436,196.466 240.604,198.281 239.261,208.326 
		248.068,206.064 247.436,196.466 	"/>
	<polyline opacity="0.4" fill="#F69668" enable-background="new    " points="219.95,204.757 213.118,206.573 211.777,216.615 
		220.583,214.355 219.95,204.757 	"/>
	<path opacity="0.3" enable-background="new    " d="M278.132,192.484c-11.276-5.801-23.7-7.021-35.151-4.345
		c-3.448-5.19-8.14-9.531-13.941-12.514c-19.65-10.107-44.57-0.822-55.662,20.737c-11.091,21.562-4.151,47.237,15.499,57.343
		c1.159,0.596,2.337,1.124,3.528,1.587c0.659,0.292,1.424,0.574,2.309,0.85c7.616,2.37,12.662,5.615,15.954,8.585
		c4.753,7.886,11.684,14.592,20.473,19.111c25.227,12.979,56.197,3.046,69.175-22.18C313.29,236.432,303.36,205.462,278.132,192.484
		z"/>
	<path fill="#FDD6B2" d="M189.462,250.411c19.649,10.107,44.571,0.822,55.662-20.738c11.09-21.562,4.152-47.237-15.499-57.342
		c-19.65-10.107-44.571-0.823-55.663,20.738C162.873,214.63,169.812,240.303,189.462,250.411z"/>
	<circle fill="#FDD6B2" cx="255.222" cy="234.866" r="51.367"/>
	<path fill="#FCF8CD" d="M262.373,183.953c0,0-10.71,3.294-25.867-8.193c-15.158-11.485-4.606,19.19-4.606,19.19l30.09,13.173
		l12.174-11.511L262.373,183.953z"/>
	<path fill="#FDD6B2" d="M217.008,269.125c0,0-3.55-10.627-21.709-16.278c-18.159-5.652,12.934-14.907,12.934-14.907l28.215,16.818
		l-2.284,16.598L217.008,269.125z"/>
	<path fill="#EEA867" d="M194.975,243.992c19.65,10.108,44.572,0.822,55.663-20.739c11.092-21.562,4.152-47.236-15.498-57.343
		c-19.649-10.107-44.571-0.823-55.663,20.739C168.386,208.209,175.325,233.883,194.975,243.992z"/>
	<path fill="#EEA867" d="M237.239,274.125c25.227,12.976,56.197,3.046,69.175-22.182c12.975-25.228,3.044-56.197-22.184-69.176
		c-25.227-12.974-56.197-3.044-69.173,22.183C202.081,230.178,212.012,261.149,237.239,274.125z"/>
	<path fill="#DE9C66" d="M178.555,187.422c-11.093,21.561-4.152,47.234,15.499,57.341c19.65,10.109,44.571,0.824,55.662-20.737"/>
	<path fill="#DE9C66" d="M214.135,205.723c-12.976,25.228-3.045,56.197,22.181,69.173c25.228,12.977,56.197,3.046,69.174-22.182"/>
	<path fill="#EEA867" d="M265.787,177.316c0,0-10.71,3.291-25.868-8.192c-15.157-11.486-4.605,19.19-4.605,19.19l30.089,13.173
		l12.175-11.512L265.787,177.316z"/>
	<path fill="#DE9C66" d="M222.523,262.706c0,0-3.552-10.629-21.71-16.279c-18.158-5.652,12.935-14.905,12.935-14.905l28.215,16.815
		l-2.285,16.601L222.523,262.706z"/>
	
		<ellipse transform="matrix(-0.6375 0.7705 -0.7705 -0.6375 527.9589 164.8941)" fill="#B6865C" cx="225.186" cy="206.657" rx="19.173" ry="19.2"/>
	<polygon fill="#EEA867" points="105.374,125.767 97.705,138.395 84.379,136.523 78.933,132.016 87.463,114.817 94.069,115.097 	"/>
	<polygon fill="#CCCBCB" points="264.099,216.591 100.12,123.368 95.666,134.261 256.745,231.711 	"/>
	<polygon opacity="0.5" fill="#FFFFFF" enable-background="new    " points="258.337,223.277 96.18,130.332 94.714,130.673 
		257.468,224.631 	"/>
	<polygon opacity="0.5" fill="#FFFFFF" enable-background="new    " points="257.591,226.307 95.436,133.361 93.97,133.703 
		256.724,227.662 	"/>
	<polygon opacity="0.5" fill="#FFFFFF" enable-background="new    " points="259.779,220.46 97.623,127.515 96.158,127.855 
		258.912,221.813 	"/>
	<polygon opacity="0.5" fill="#FFFFFF" enable-background="new    " points="261.961,217.646 99.804,124.699 98.34,125.042 
		261.094,219.001 	"/>
	<polygon fill="#D39868" points="270.411,218.81 259.168,235.599 250.268,234.887 266.721,211.558 	"/>
	<polygon fill="#CCCBCB" points="86.42,135.363 84.722,142.313 82.785,142.206 85.218,134.367 	"/>
	<polygon fill="#CCCBCB" points="83.374,132.841 81.674,139.792 79.737,139.685 82.171,131.846 	"/>
	<polygon fill="#CCCBCB" points="91.289,116.541 94.015,109.923 92.386,108.869 89.731,116.636 	"/>
	<polygon fill="#CCCBCB" points="95.013,118.387 97.737,111.771 96.108,110.716 93.456,118.483 	"/>
	<polyline opacity="0.2" fill="#020202" enable-background="new    " points="161.399,183.292 136.226,212.921 157.037,250.314 
		244.377,248.485 244.377,221.234 168.679,220.371 161.399,198.699 161.399,182.445 	"/>
	<polygon opacity="0.2" fill="#020202" enable-background="new    " points="305.49,202.722 312.113,223.423 312.113,226.864 
		267.216,225.812 267.161,202.722 	"/>
	<polyline fill="#F5DCA4" points="161.399,181.058 136.226,210.687 157.037,248.079 244.377,246.25 244.377,219.001 
		168.679,218.136 161.399,196.466 161.399,180.21 	"/>
	<polygon fill="#F5DCA4" points="305.49,200.488 312.113,221.189 312.113,224.631 267.216,223.578 267.161,200.488 	"/>
	<path fill="#EE4756" d="M176.546,235.527c0,0,11.986,8.537,24.065,8.12c12.077-0.418,4.241-10.451,4.241-10.451l-14.021-14.699
		L176.546,235.527z"/>
	<path fill="#6CC396" d="M191.048,219.919c-12.673,12.196-31.268,13.438-41.533,2.771c-10.267-10.667-8.317-29.201,4.354-41.401
		c12.673-12.194,31.268-13.435,41.536-2.771C205.67,189.187,203.72,207.722,191.048,219.919z"/>
	<path fill="#EE4756" d="M206.684,204.649c0,0,9.026,13.754,8.045,27.227c-0.981,13.472-11.856,4.29-11.856,4.29l-15.82-16.287
		L206.684,204.649z"/>
	<path fill="#B5D3EE" d="M192.209,218.765c0,0,7.554,4.848,3.927,8.341c-3.626,3.489-8.324,8.113-16.805,11.026
		c-8.479,2.915-9.476-7.59-9.476-7.59L192.209,218.765z"/>
	<path fill="#B5D3EE" d="M187.042,223.74c0,0,4.364,7.918,8.456,3.979c4.092-3.94,9.505-9.048,13.493-18.135
		c3.989-9.085-7.078-9.897-7.078-9.897L187.042,223.74z"/>
	<path fill="#EE4756" d="M159.317,158.504c0,0-11.128-7.745-21.743-11.027c-10.614-3.28-23.808-13.559-24.734-18.586
		c-0.923-5.026-2.909,0.475-2.909,0.475c-1.438,2.668-1.905,7.193-0.89,10.053c0,0,0.276,3.665,11.759,24.688
		c11.484,21.024,10.149,21.702,10.149,21.702L159.317,158.504z"/>
	<path fill="#8ACEB6" d="M195.816,224.87c-10.484,10.091-28.303,8.591-39.797-3.354c-11.495-11.942-12.316-29.803-1.831-39.897
		c10.484-10.089,28.302-8.587,39.797,3.354C205.479,196.916,206.298,214.778,195.816,224.87z"/>
	<path fill="#FFFFFF" d="M172.936,201.101c-10.667,10.266-26.142,11.494-34.566,2.742s-6.606-24.172,4.06-34.436
		c10.667-10.267,26.142-11.494,34.566-2.743C185.42,175.417,183.603,190.834,172.936,201.101z"/>
	<path fill="#F5D1CD" d="M130.825,185.591c0,0-3.474,1.286-2.869,5.143c0.605,3.855,7.182,5.47,7.182,5.47l0.725-7.778
		L130.825,185.591z"/>
	<path fill="#F5D1CD" d="M159.042,158.383c0,0,1.418-3.423,5.248-2.672c3.83,0.751,5.191,7.385,5.191,7.385l-7.799,0.428
		L159.042,158.383z"/>
	<path fill="#F5D1CD" d="M169.444,180.292c-5.013,4.828-12.991,4.675-17.817-0.34c-4.826-5.012-4.674-12.989,0.34-17.815
		c5.013-4.827,12.991-4.674,17.817,0.34C174.611,167.491,174.458,175.467,169.444,180.292z"/>
	<path fill="#F5D1CD" d="M152.277,196.817c-5.014,4.825-12.991,4.673-17.817-0.342c-4.827-5.013-4.674-12.991,0.339-17.818
		c5.014-4.823,12.992-4.67,17.819,0.341C157.444,184.013,157.291,191.991,152.277,196.817z"/>
	<path fill="#F5D1CD" d="M161.322,158.685c0,0-6.356-1.491-18.588,10.282c-12.233,11.772-11.648,17.838-11.648,17.838l6.346,1.092
		l12.647-6.763L161.322,158.685z"/>
	
		<ellipse transform="matrix(0.7204 -0.6936 0.6936 0.7204 -84.119 160.5466)" fill="#E9C4BD" cx="157.048" cy="184.596" rx="5.27" ry="4.125"/>
	
		<ellipse transform="matrix(0.7205 -0.6934 0.6934 0.7205 -101.3743 213.2526)" fill="#DAB08A" cx="213.873" cy="232.391" rx="8.478" ry="4.34"/>
	
		<ellipse transform="matrix(0.7205 -0.6935 0.6935 0.7205 -112.5499 208.0287)" fill="#DAB08A" cx="201.767" cy="243.623" rx="8.477" ry="4.193"/>
	<path fill="#FFFFFF" d="M158.509,160.724c1.399-0.59,3.014,0.068,3.604,1.462c0.59,1.399-0.065,3.013-1.463,3.604l-8.442,3.567
		c-1.399,0.59-3.013-0.066-3.604-1.462c-0.59-1.399,0.065-3.012,1.463-3.603L158.509,160.724z"/>
	<path fill="#FFFFFF" d="M133.628,184.328c-0.644,1.375-0.049,3.015,1.324,3.656c1.374,0.644,3.011,0.052,3.655-1.323l3.887-8.3
		c0.644-1.375,0.048-3.013-1.324-3.654c-1.374-0.645-3.012-0.051-3.656,1.322L133.628,184.328z"/>
	<circle fill="#6F6C6D" cx="157.49" cy="169.857" r="2.52"/>
	<circle fill="#6F6C6D" cx="143.295" cy="183.519" r="2.521"/>
	<path fill="none" stroke="#969595" stroke-width="0.5854" stroke-miterlimit="10" d="M174.228,167.43"/>
	<path fill="#6F6C6D" d="M166.733,194.986c-2.006,1.93-4.415,2.683-5.38,1.679c-0.965-1.002-0.122-3.38,1.884-5.31
		c2.006-1.93,4.414-2.683,5.379-1.681C169.583,190.679,168.739,193.057,166.733,194.986z"/>
	
		<rect x="161.789" y="183.137" transform="matrix(0.6934 0.7206 -0.7206 0.6934 188.3535 -59.8801)" fill="#FFFFFF" width="5.5" height="16.496"/>
	<path fill="#9EC8EA" d="M131.543,188.67"/>
	<polygon fill="#9EC8EA" points="168.708,217.428 148.388,211.371 160.705,239.329 	"/>
	<polygon fill="#9EC8EA" points="140.775,209.681 148.388,211.371 159.042,221.189 156.14,229.943 143.538,219.812 140.775,212.349 
			"/>
	<polygon fill="#E15726" points="223.105,217.942 220.684,246.745 157.037,248.079 136.226,210.687 140.444,205.723 
		142.753,207.195 143.308,210.173 	"/>
	<polyline fill="#E15726" points="297.358,224.286 288.626,200.488 305.49,200.488 312.113,218.765 312.113,224.631 
		297.358,224.286 	"/>
	<polyline opacity="0.04" enable-background="new    " points="174.194,292.074 142.753,299.635 154.971,333.001 143.538,356.112 
		158.5,356.112 164.262,336.731 161.8,308.814 161.428,305.769 197.721,307.086 290.276,307.086 286.924,334.452 293.364,356.112 
		312.113,356.112 294.828,334.758 305.49,299.049 265.99,292.023 174.194,292.074 	"/>
	<polygon opacity="0.02" enable-background="new    " points="244.377,235.541 162.335,234.867 143.988,224.631 157.037,248.079 
		244.377,246.25 	"/>
	<polygon opacity="0.02" enable-background="new    " points="309.582,212.56 267.161,212.756 267.216,223.578 312.113,224.631 
		312.113,221.189 	"/>
</g>
</svg>
