<?xml version="1.0" encoding="utf-8"?>
<!-- Generator: Adobe Illustrator 16.2.1, SVG Export Plug-In . SVG Version: 6.00 Build 0)  -->
<!DOCTYPE svg PUBLIC "-//W3C//DTD SVG 1.1//EN" "http://www.w3.org/Graphics/SVG/1.1/DTD/svg11.dtd">
<svg version="1.1" id="Layer_1" xmlns="http://www.w3.org/2000/svg" xmlns:xlink="http://www.w3.org/1999/xlink" x="0px" y="0px"
	 width="313.124px" height="165.753px" viewBox="191.307 99.225 313.124 165.753"
	 enable-background="new 191.307 99.225 313.124 165.753" xml:space="preserve">
<g>
	<polyline fill="#989898" points="439.478,177.778 397.381,182.227 399.762,191.874 436.203,191.874 437.394,182.984 	"/>
	<path fill="#CCCBCB" d="M428.468,181.078c0,0-9.322,27.839-4.322,45.345c0,0-2.591,35.366-1.476,37.867h16.118
		c0,0,2.458-34.295,3.73-33.225c1.275,1.072,6.907,1.785,8.733,1.072c1.829-0.715,6.115,32.152,6.115,32.152h15.362l-1.786-39.298
		c0,0,4.241-22.812-1.451-43.915c0,0,33.253,2.118,22.893,29.983c0,0,7.537-2.401,7.787-10.267
		c0.252-7.986,5.692-24.373-15.027-29.18c0,0-4.435-1.455-14.677-2.26C460.226,168.549,428.468,181.078,428.468,181.078z"/>
	<path fill="#989898" d="M423.001,207.354h49.448c0,0-0.191,5.785-0.301,7.219c-0.108,1.431-49.478,0-49.478,0L423.001,207.354z"/>
	<rect x="458.729" y="190.521" fill="#C99977" width="18.721" height="22.507"/>
	<path fill="#989898" d="M502.374,201.486c0,3.958-7.507,9.796-12.252,9.796c-4.744,0-8.592-3.209-8.592-7.169
		c0,0,14.16-0.67,10.011-11.334c-4.15-10.662,7.173,10.656,7.173,10.656"/>
	<polygon fill="#D6A47B" points="477.449,189.941 499.7,171.744 499.7,191.934 477.449,213.027 	"/>
	<polygon fill="#E9B280" points="458.729,190.521 480.951,171.744 499.7,171.744 477.449,190.521 	"/>
	<path fill="#989898" d="M467.276,181.133c0,0,31.776,2.63,24.869,26.836l11.633-13.445c0,0,2.904-21.379-25.571-24.239
		C450.037,167.451,467.276,181.133,467.276,181.133z"/>
	<polygon fill="#DCA97F" points="458.729,190.521 467.235,202.047 477.449,190.521 	"/>
	<path fill="#989898" d="M501.421,204.247c0,0,7.167-10.936-0.617-22.333l-3.25,9.658l-2.383,15.373L501.421,204.247z"/>
	<polygon fill="#FFCC67" points="442.428,123.123 444.635,107.379 449.73,112.981 457.353,107.245 460.527,115.501 467.356,112.564 
		462.482,128.165 	"/>
	<circle opacity="0.2" fill="#0C0D0D" enable-background="new    " cx="446.159" cy="154.991" r="33.82"/>
	<path fill="#CCCBCB" d="M479.979,152.689c0,18.676-15.142,33.822-33.819,33.822s-33.82-15.146-33.82-33.822
		c0-18.678,15.143-33.82,33.82-33.82C464.837,118.868,479.979,134.01,479.979,152.689z"/>
	<path opacity="0.8" fill="#FFFFFF" enable-background="new    " d="M438.061,172.139c17.09-0.614,30.963-9.063,30.963-20.243
		c0-11.183-13.863-20.245-30.963-20.245c0,0-14.916-0.46-18.852,0.604c0,0-16.049,19.569-1.337,38.975
		C417.872,171.228,427.025,172.535,438.061,172.139z"/>
	<path fill="#F6DDA5" d="M425.041,171.918c32.787,4.11,42.235-13.117,42.235-13.117c0-12.935-9.455-23.419-21.118-23.419
		c-11.662,0-21.117,10.485-21.117,23.419v12.934"/>
	<path fill="#FFCC67" d="M425.041,171.735"/>
	<path fill="#FFCC67" d="M425.041,171.735"/>
	<circle fill="#474847" cx="434.566" cy="154.991" r="2.461"/>
	<circle fill="#474847" cx="451.399" cy="154.991" r="2.461"/>
	<path opacity="0.6" fill="#333333" enable-background="new    " d="M433.853,166.316c0,0,9.877,2.123,18.855,0H433.853z"/>
	<path fill="#C6C5C5" d="M392.175,182.412c-1.612,1.332-0.802,2.865,0.688,5.329c1.491,2.465,0.116,3.498,2.295,4.646
		c2.177,1.145,5.157-0.574,5.157-0.574l2.522-9.399C402.837,182.412,397.448,178.054,392.175,182.412z"/>
	<polygon fill="#E6E6E6" points="402.837,262.302 394.662,100.345 391.291,100.345 399.902,262.302 	"/>
	<circle fill="#FFCC67" cx="393.101" cy="109.28" r="10.055"/>
	<polygon fill="#F2F2F2" points="388.187,112.809 387.835,106.666 392.903,103.291 398.322,106.059 398.675,112.202 
		393.605,115.577 	"/>
	<path fill="#E25626" d="M457.367,264.29l-1.28-9.2h16.224l0.178,3.901c0,0,6.009-4.787,8.63,1.643c0,0,1.19,2.82-0.477,3.656
		C478.975,265.123,457.367,264.29,457.367,264.29z"/>
	<path fill="#E25626" d="M438.788,264.29l0.713-9.2h-17.007l-0.031,3.901c0,0-6.335-4.787-9.098,1.643c0,0-1.255,2.82,0.502,3.656
		C415.624,265.123,438.788,264.29,438.788,264.29z"/>
	<circle fill="#E25626" cx="441.823" cy="210.616" r="7.181"/>
	<polyline fill="#B7B7B7" points="441.851,215.842 437.265,213.24 437.226,207.969 441.774,205.297 446.359,207.901 
		446.398,213.173 441.851,215.842 	"/>
	<polygon fill="#EDECED" points="441.815,210.358 446.359,207.901 441.774,205.297 437.226,207.969 	"/>
	<polyline fill="#D1D1CF" points="441.851,215.842 437.265,213.24 437.226,207.969 441.815,210.358 441.851,215.842 	"/>
	<path fill="#989898" d="M498.573,202.92c0,0-12.416-20.702-7.718-10.269c0,0,2.306,6.101-1.82,9.41
		C484.91,205.374,498.573,202.92,498.573,202.92z"/>
	<path fill="#C6C5C5" d="M401.927,182.345c-0.541,0.864-2.128,0.844-3.543-0.042c-1.414-0.89-2.121-2.309-1.579-3.174
		c0.542-0.863,2.128-0.843,3.543,0.043C401.763,180.06,402.47,181.48,401.927,182.345z"/>
	<ellipse fill="#C6C5C5" cx="397.381" cy="188.354" rx="3.024" ry="1.846"/>
	<ellipse fill="#C6C5C5" cx="397.479" cy="190.804" rx="3.023" ry="1.846"/>
	<path fill="#C6C5C5" d="M394.456,181.029c0,0,3.99-0.896,5.949,2.597c1.958,3.492-1.138,0.873-0.424,1.746
		c0.715,0.874-0.793,2.145-0.793,2.145l-1.429,1.295l-2.78-0.898l-0.625-4.13L394.456,181.029z"/>
	<polygon fill="#C6C5C5" points="402.837,182.412 401.48,180.168 400.405,180.736 401.622,182.979 	"/>
	<path fill="#C6C5C5" d="M489.663,201.486l0.46,9.796c0,0-4.191,0.366-7.283-3.364L489.663,201.486z"/>
	<polygon fill="#F7DDC4" points="422.494,255.09 422.616,251.9 439.768,251.9 439.501,255.09 	"/>
	<polygon fill="#F7DDC4" points="456.087,255.09 455.611,251.9 472.166,251.9 472.311,255.09 	"/>
	<path opacity="0.03" fill="#020202" enable-background="new    " d="M451.253,232.138c0,0,7.646-0.084,11.492-2.706l4.531,35.149
		l-9.909-0.291C457.367,264.29,453.061,231.857,451.253,232.138z"/>
	<path opacity="0.04" fill="#020202" enable-background="new    " d="M438.788,264.29c0,0,2.883-36.594,3.73-33.225
		c0,0-5.104-1.275-7.01-4.014l-5.359,37.529L438.788,264.29z"/>
	<polygon opacity="0.02" enable-background="new    " points="447.77,107.365 448.938,114.245 453.86,106.413 449.73,109.521 	"/>
	<polygon opacity="0.02" enable-background="new    " points="459.08,111.958 460.527,115.725 464.402,114.058 458.372,119.957 	"/>
	<polygon opacity="0.1" fill="#CCCBCB" enable-background="new    " points="401.241,188.356 426.657,187.305 425.535,191.874 
		400.314,191.812 	"/>
	<path opacity="0.1" fill="#CCCBCB" enable-background="new    " d="M471.247,175.369c0,0,32.656,4.689,23.924,28.504
		c0,0-2.665,6.76-10.192,2.029l4.686-4.416c0,0,11.338-13.496-22.279-20.322l-1.343-1.116L471.247,175.369z"/>
</g>
<g>
	<path fill="#F6DDA5" d="M314.161,188.501c-38.383,4.811-49.442-15.356-49.442-15.356c0-15.141,11.067-27.416,24.721-27.416
		c13.653,0,24.721,12.275,24.721,27.416v15.142"/>
	<circle fill="#474847" cx="299.021" cy="168.125" r="2.881"/>
	<circle fill="#474847" cx="279.318" cy="168.125" r="2.881"/>
	<rect x="259.058" y="180.735" fill="#AFDEE2" width="61.338" height="60.894"/>
	<path fill="#AFDEE2" d="M317.449,229.011l21.468,5.224l-10.734,18.478l4.6,2.509c0,0,18.403,1.115,14.499,9.758H321.91
		l-3.067-10.315l1.673-13.661l-23.127-6.768"/>
	<path fill="#AFDEE2" d="M262.139,229.011l-21.468,5.224l10.734,18.478l-4.601,2.509c0,0-18.402,1.115-14.498,9.758h25.372
		l3.067-10.315l-1.673-13.661l23.126-6.768"/>
	<rect x="259.049" y="185.646" fill="#E15726" width="61.339" height="43.815"/>
	<path fill="#F1B25F" d="M365.431,183.04l-0.492-5.242l-6.306,3.99l-110.907-4.357c0,0-55.84-29.149-56.419,0.763L365.431,183.04z"
		/>
	<path fill="#FFCC67" d="M365.18,180.109l0.602,6.761l-6.947-3.331l-110.978-1.81c0,0-57.372,26.002-56.289-3.895L365.18,180.109z"
		/>
	<polygon fill="#FCCB98" points="229.923,211.474 229.979,217.402 337.595,181.832 337.315,152.351 327.726,150.558 
		329.581,177.615 	"/>
	<polygon opacity="0.3" fill="#CB9866" enable-background="new    " points="332.973,151.54 327.726,150.558 329.581,177.615 
		234.236,210.009 233.941,212.654 334.235,179.207 	"/>
	<polyline fill="#EE3A39" points="328.165,157.723 337.399,161.273 337.492,170.938 329.013,169.351 328.165,157.723 	"/>
	<path fill="#333333" d="M230.089,219.636c0.929-1.044,1.114-2.564,1.114-2.564l4.271-1.412l0.107-6.04l-4.272,1.253
		c0,0,0.159-1.112-0.992-3.066l-1.09,0.123l-0.053,11.878L230.089,219.636z"/>
	<polyline opacity="0.4" fill="#F69668" enable-background="new    " points="293.48,190.859 290.227,191.724 289.587,196.508 
		293.783,195.431 293.48,190.859 	"/>
	<polyline opacity="0.4" fill="#F69668" enable-background="new    " points="300.036,188.943 296.782,189.808 296.142,194.592 
		300.336,193.515 300.036,188.943 	"/>
	<polyline opacity="0.4" fill="#F69668" enable-background="new    " points="286.945,192.892 283.691,193.757 283.052,198.54 
		287.246,197.464 286.945,192.892 	"/>
	<path opacity="0.3" enable-background="new    " d="M314.655,187.047c-5.371-2.763-11.288-3.344-16.742-2.069
		c-1.642-2.472-3.877-4.54-6.64-5.96c-9.359-4.813-21.228-0.391-26.51,9.876c-5.282,10.27-1.977,22.498,7.382,27.312
		c0.552,0.283,1.113,0.535,1.68,0.755c0.314,0.14,0.678,0.274,1.1,0.405c3.627,1.129,6.031,2.674,7.599,4.089
		c2.264,3.756,5.565,6.949,9.75,9.102c12.015,6.182,26.765,1.451,32.946-10.563C331.4,207.978,326.67,193.228,314.655,187.047z"/>
	<path fill="#FDD6B2" d="M272.424,214.636c9.358,4.813,21.228,0.392,26.51-9.877c5.282-10.27,1.978-22.498-7.381-27.311
		c-9.359-4.813-21.228-0.392-26.511,9.877C259.76,197.594,263.065,209.821,272.424,214.636z"/>
	<circle fill="#FDD6B2" cx="303.744" cy="207.232" r="24.464"/>
	<path fill="#FCF8CD" d="M307.149,182.984c0,0-5.101,1.569-12.32-3.902c-7.219-5.47-2.193,9.14-2.193,9.14l14.331,6.273l5.798-5.482
		L307.149,182.984z"/>
	<path fill="#FDD6B2" d="M285.543,223.549c0,0-1.691-5.062-10.339-7.753s6.16-7.1,6.16-7.1l13.438,8.01l-1.088,7.905
		L285.543,223.549z"/>
	<path fill="#EEA867" d="M275.05,211.579c9.358,4.813,21.228,0.392,26.511-9.878s1.978-22.497-7.381-27.311
		c-9.358-4.813-21.228-0.392-26.511,9.877C262.386,194.536,265.691,206.764,275.05,211.579z"/>
	<path fill="#EEA867" d="M295.179,225.93c12.015,6.181,26.765,1.451,32.946-10.564c6.18-12.016,1.45-26.765-10.565-32.946
		c-12.015-6.179-26.765-1.45-32.945,10.565C278.434,204.999,283.164,219.75,295.179,225.93z"/>
	<path fill="#DE9C66" d="M267.229,184.636c-5.284,10.269-1.978,22.496,7.382,27.311c9.358,4.814,21.228,0.392,26.51-9.877"/>
	<path fill="#DE9C66" d="M284.175,193.352c-6.18,12.016-1.45,26.766,10.564,32.946c12.016,6.18,26.765,1.45,32.946-10.565"/>
	<path fill="#EEA867" d="M308.775,179.823c0,0-5.101,1.567-12.32-3.902c-7.219-5.47-2.193,9.14-2.193,9.14l14.331,6.273l5.798-5.482
		L308.775,179.823z"/>
	<path fill="#DE9C66" d="M288.17,220.491c0,0-1.691-5.062-10.34-7.753c-8.648-2.691,6.161-7.099,6.161-7.099l13.438,8.008
		l-1.088,7.907L288.17,220.491z"/>
	
		<ellipse transform="matrix(0.7705 0.6375 -0.6375 0.7705 189.9716 -140.0236)" fill="#B6865C" cx="289.433" cy="193.796" rx="9.145" ry="9.132"/>
	<polygon fill="#EEA867" points="232.375,155.271 228.723,161.286 222.376,160.394 219.782,158.248 223.845,150.056 
		226.991,150.189 	"/>
	<polygon fill="#CCCBCB" points="307.972,198.528 229.873,154.129 227.751,159.316 304.469,205.729 	"/>
	<polygon opacity="0.5" fill="#FFFFFF" enable-background="new    " points="305.227,201.713 227.997,157.445 227.298,157.608 
		304.813,202.357 	"/>
	<polygon opacity="0.5" fill="#FFFFFF" enable-background="new    " points="304.872,203.155 227.642,158.888 226.944,159.051 
		304.459,203.801 	"/>
	<polygon opacity="0.5" fill="#FFFFFF" enable-background="new    " points="305.914,200.371 228.684,156.104 227.986,156.266 
		305.501,201.015 	"/>
	<polygon opacity="0.5" fill="#FFFFFF" enable-background="new    " points="306.953,199.031 229.722,154.763 229.025,154.926 
		306.54,199.676 	"/>
	<polygon fill="#D39868" points="310.978,199.585 305.623,207.581 301.384,207.242 309.22,196.132 	"/>
	<polygon fill="#CCCBCB" points="223.348,159.841 222.539,163.151 221.617,163.101 222.775,159.367 	"/>
	<polygon fill="#CCCBCB" points="221.897,158.64 221.087,161.951 220.165,161.9 221.324,158.167 	"/>
	<polygon fill="#CCCBCB" points="225.667,150.877 226.965,147.725 226.189,147.223 224.925,150.922 	"/>
	<polygon fill="#CCCBCB" points="227.44,151.756 228.738,148.605 227.962,148.103 226.699,151.802 	"/>
	<polyline opacity="0.2" fill="#020202" enable-background="new    " points="259.058,182.669 247.069,196.78 256.981,214.59 
		298.579,213.718 298.579,200.739 262.526,200.328 259.058,190.007 259.058,182.265 	"/>
	<polygon opacity="0.2" fill="#020202" enable-background="new    " points="327.685,191.923 330.839,201.782 330.839,203.421 
		309.456,202.92 309.43,191.923 	"/>
	<polyline fill="#F5DCA4" points="259.058,181.605 247.069,195.717 256.981,213.525 298.579,212.654 298.579,199.676 
		262.526,199.265 259.058,188.943 259.058,181.201 	"/>
	<polygon fill="#F5DCA4" points="327.685,190.859 330.839,200.719 330.839,202.357 309.456,201.856 309.43,190.859 	"/>
	<path fill="#EE4756" d="M266.272,207.547c0,0,5.708,4.066,11.461,3.867c5.752-0.199,2.02-4.978,2.02-4.978l-6.678-7.001
		L266.272,207.547z"/>
	<path fill="#6CC396" d="M273.179,200.113c-6.036,5.809-14.892,6.4-19.781,1.319c-4.89-5.08-3.961-13.907,2.074-19.718
		c6.036-5.808,14.892-6.399,19.782-1.32C280.144,185.477,279.215,194.305,273.179,200.113z"/>
	<path fill="#EE4756" d="M280.626,192.84c0,0,4.299,6.551,3.832,12.968s-5.646,2.044-5.646,2.044l-7.535-7.758L280.626,192.84z"/>
	<path fill="#B5D3EE" d="M273.732,199.563c0,0,3.598,2.31,1.87,3.973c-1.727,1.662-3.964,3.864-8.003,5.251
		c-4.039,1.389-4.513-3.614-4.513-3.614L273.732,199.563z"/>
	<path fill="#B5D3EE" d="M271.271,201.934c0,0,2.079,3.771,4.027,1.895s4.527-4.31,6.426-8.637c1.9-4.327-3.371-4.714-3.371-4.714
		L271.271,201.934z"/>
	<path fill="#EE4756" d="M258.067,170.863c0,0-5.3-3.688-10.355-5.251c-5.056-1.562-11.339-6.458-11.78-8.852
		c-0.44-2.394-1.386,0.226-1.386,0.226c-0.685,1.271-0.907,3.426-0.424,4.788c0,0,0.131,1.745,5.601,11.758
		c5.47,10.013,4.834,10.336,4.834,10.336L258.067,170.863z"/>
	<path fill="#8ACEB6" d="M275.45,202.472c-4.993,4.806-13.48,4.091-18.954-1.598c-5.475-5.688-5.866-14.194-0.872-19.002
		c4.993-4.805,13.479-4.09,18.954,1.597C280.052,189.157,280.442,197.664,275.45,202.472z"/>
	<path fill="#FFFFFF" d="M264.553,191.151c-5.081,4.889-12.451,5.474-16.463,1.306c-4.012-4.169-3.146-11.513,1.934-16.401
		c5.081-4.89,12.451-5.474,16.463-1.306C270.499,178.918,269.633,186.261,264.553,191.151z"/>
	<path fill="#F5D1CD" d="M244.497,183.764c0,0-1.655,0.612-1.367,2.45c0.288,1.835,3.42,2.604,3.42,2.604l0.345-3.704
		L244.497,183.764z"/>
	<path fill="#F5D1CD" d="M257.936,170.805c0,0,0.676-1.63,2.5-1.272c1.824,0.357,2.473,3.518,2.473,3.518l-3.714,0.204
		L257.936,170.805z"/>
	<path fill="#F5D1CD" d="M262.89,181.24c-2.387,2.3-6.187,2.227-8.485-0.162c-2.299-2.387-2.226-6.187,0.162-8.485
		c2.388-2.299,6.188-2.226,8.486,0.162C265.351,175.144,265.278,178.942,262.89,181.24z"/>
	<path fill="#F5D1CD" d="M254.714,189.11c-2.388,2.298-6.188,2.226-8.486-0.163c-2.299-2.388-2.226-6.187,0.161-8.486
		c2.388-2.297,6.188-2.225,8.487,0.162C257.175,183.013,257.102,186.812,254.714,189.11z"/>
	<path fill="#F5D1CD" d="M259.021,170.949c0,0-3.027-0.71-8.853,4.897c-5.826,5.606-5.547,8.496-5.547,8.496l3.022,0.52l6.023-3.22
		L259.021,170.949z"/>
	
		<ellipse transform="matrix(-0.6936 -0.7203 0.7203 -0.6936 303.209 495.5467)" fill="#E9C4BD" cx="256.989" cy="183.292" rx="1.964" ry="2.51"/>
	
		<ellipse transform="matrix(-0.6935 -0.7205 0.7205 -0.6935 332.5551 553.5953)" fill="#DAB08A" cx="284.045" cy="206.053" rx="2.067" ry="4.038"/>
	
		<ellipse transform="matrix(-0.6936 -0.7204 0.7204 -0.6936 319.0161 558.5096)" fill="#DAB08A" cx="278.289" cy="211.408" rx="1.997" ry="4.037"/>
	<path fill="#FFFFFF" d="M257.682,171.92c0.667-0.281,1.436,0.032,1.717,0.696c0.281,0.666-0.031,1.435-0.697,1.716l-4.021,1.699
		c-0.667,0.281-1.436-0.031-1.717-0.696c-0.281-0.666,0.031-1.435,0.697-1.716L257.682,171.92z"/>
	<path fill="#FFFFFF" d="M245.832,183.162c-0.307,0.655-0.023,1.436,0.631,1.741c0.654,0.307,1.434,0.025,1.741-0.63l1.852-3.953
		c0.307-0.655,0.022-1.435-0.631-1.74c-0.654-0.307-1.435-0.024-1.741,0.629L245.832,183.162z"/>
	<circle fill="#6F6C6D" cx="257.197" cy="176.27" r="1.2"/>
	<circle fill="#6F6C6D" cx="250.436" cy="182.777" r="1.201"/>
	<path fill="none" stroke="#969595" stroke-width="0.2788" stroke-miterlimit="10" d="M265.168,175.114"/>
	<path fill="#6F6C6D" d="M261.599,188.238c-0.955,0.919-2.103,1.278-2.562,0.8c-0.459-0.478-0.058-1.609,0.897-2.529
		c0.956-0.919,2.103-1.277,2.562-0.801C262.956,186.188,262.554,187.319,261.599,188.238z"/>
	
		<rect x="259.241" y="182.599" transform="matrix(-0.6935 -0.7205 0.7205 -0.6935 306.8434 503.601)" fill="#FFFFFF" width="2.62" height="7.857"/>
	<path fill="#9EC8EA" d="M244.839,185.23"/>
	<polygon fill="#9EC8EA" points="262.54,198.927 252.862,196.042 258.728,209.357 	"/>
	<polygon fill="#9EC8EA" points="249.236,195.237 252.862,196.042 257.936,200.719 256.554,204.888 250.552,200.062 
		249.236,196.508 	"/>
	<polygon fill="#E15726" points="288.447,199.171 287.294,212.89 256.981,213.525 247.069,195.717 249.078,193.352 250.178,194.054 
		250.442,195.472 	"/>
	<polyline fill="#E15726" points="323.812,202.193 319.653,190.859 327.685,190.859 330.839,199.563 330.839,202.357 
		323.812,202.193 	"/>
	<polyline opacity="0.04" enable-background="new    " points="265.152,234.479 250.178,238.08 255.997,253.971 250.552,264.979 
		257.678,264.979 260.422,255.748 259.249,242.452 259.072,241.002 276.357,241.629 320.439,241.629 318.842,254.662 
		321.91,264.979 330.839,264.979 322.607,254.808 327.685,237.801 308.872,234.455 265.152,234.479 	"/>
	<polygon opacity="0.02" enable-background="new    " points="298.579,207.554 259.504,207.232 250.766,202.357 256.981,213.525 
		298.579,212.654 	"/>
	<polygon opacity="0.02" enable-background="new    " points="329.634,196.608 309.43,196.701 309.456,201.856 330.839,202.357 
		330.839,200.719 	"/>
</g>
</svg>
