<?xml version="1.0" encoding="utf-8"?>
<!-- Generator: Adobe Illustrator 16.2.1, SVG Export Plug-In . SVG Version: 6.00 Build 0)  -->
<!DOCTYPE svg PUBLIC "-//W3C//DTD SVG 1.1//EN" "http://www.w3.org/Graphics/SVG/1.1/DTD/svg11.dtd">
<svg version="1.1" id="Layer_1" xmlns="http://www.w3.org/2000/svg" xmlns:xlink="http://www.w3.org/1999/xlink" x="0px" y="0px"
	 width="42px" height="42px" viewBox="12 16.267 42 42" enable-background="new 12 16.267 42 42" xml:space="preserve">
<g>
	<g id="Facebook">
		<g>
			<path fill="#999999" d="M33,58.267c-11.58,0-21-9.42-21-21s9.42-21,21-21s21,9.42,21,21S44.58,58.267,33,58.267z M33,18.267
				c-10.477,0-19,8.523-19,19s8.523,19,19,19s19-8.523,19-19S43.477,18.267,33,18.267z"/>
		</g>
		<g>
			<path fill="#999999" d="M38.142,33.132h-3.714v-2.435c0-0.915,0.607-1.127,1.033-1.127c0.426,0,2.621,0,2.621,0v-4.021
				l-3.609-0.014c-4.006,0-4.917,2.999-4.917,4.917v2.68h-2.317v4.144h2.317c0,5.318,0,11.724,0,11.724h4.873c0,0,0-6.47,0-11.724
				h3.289L38.142,33.132z"/>
		</g>
	</g>
	<g id="Twitter_1_">
		<g>
			<path fill="#999999" d="M83,58.267c-11.58,0-21-9.42-21-21s9.42-21,21-21s21,9.42,21,21S94.58,58.267,83,58.267z M83,18.267
				c-10.477,0-19,8.523-19,19s8.523,19,19,19s19-8.523,19-19S93.477,18.267,83,18.267z"/>
		</g>
		<g>
			<path fill="#999999" d="M88.331,42.75h-4.23c-3.009,0-3.488-1.332-3.488-2.565c0-0.586,0.037-1.552,0.072-2.735h7.067
				c1.057,0,3.075-0.433,3.075-2.368c0-1.933-0.931-3.2-2.18-3.2h-7.875c-0.008-2.79-0.189-5.569-2.914-5.569
				c-1.127,0-2.041,0.462-2.426,1.612c-0.506,1.511-0.373,3.278-0.366,4.85c0.002,0.299,0.002,0.6,0.004,0.899
				c0.003,1.03,0.024,2.066,0.029,3.101c0.003,1.114,0.004,2.229,0.004,3.342c0,6.238,5.669,8.005,6.756,8.005
				c1.088,0,5.347,0.101,6.116,0.101c0.77,0,2.978-0.204,2.978-2.438C90.954,43.551,89.388,42.75,88.331,42.75z"/>
		</g>
	</g>
	<g id="Twiter2">
		<g id="Circle_1_">
			<path fill="#999999" d="M133,58.267c-11.58,0-21-9.42-21-21s9.42-21,21-21s21,9.42,21,21S144.58,58.267,133,58.267z M133,18.267
				c-10.477,0-19,8.523-19,19s8.523,19,19,19s19-8.523,19-19S143.477,18.267,133,18.267z"/>
		</g>
		<g>
			<path fill="#999999" d="M141.657,30.531c-0.018-0.009-0.036-0.029-0.054-0.047c-1.08-0.962-2.348-1.421-3.807-1.367l-0.045-0.099
				c0.009-0.009,0.018-0.009,0.027-0.009c1.322-0.289,2.106-0.586,2.34-0.909c0.081-0.262-0.017-0.405-0.306-0.44
				c-0.666,0.081-1.278,0.215-1.827,0.422c0.694-0.422,0.962-0.72,0.81-0.873c-0.684,0.018-1.421,0.352-2.196,1.009
				c0.288-0.468,0.396-0.721,0.324-0.766c-0.369,0.243-0.693,0.504-0.972,0.783c-0.585,0.621-1.054,1.197-1.413,1.719l-0.018,0.045
				c-0.927,1.43-1.574,2.869-1.961,4.336l-0.144,0.109l-0.026,0.026c-0.558-0.666-1.225-1.223-2.025-1.675
				c-0.945-0.584-2.052-1.143-3.33-1.682c-1.394-0.684-2.808-1.251-4.239-1.692c-0.008,1.522,0.774,2.736,2.332,3.618v0.026
				c-0.549-0.01-1.08,0.072-1.593,0.226c0.099,1.412,1.152,2.384,3.15,2.924l-0.01,0.026c-0.782-0.043-1.43,0.217-1.934,0.756
				c0.657,1.225,1.817,1.809,3.5,1.764c-0.333,0.162-0.594,0.34-0.765,0.54c-0.306,0.306-0.405,0.667-0.306,1.08
				c0.36,0.62,1.008,0.907,1.962,0.864l0,0l0.054,0.063c-0.009,0.009-0.018,0.018-0.027,0.026c-1.646,1.62-3.635,2.349-5.967,2.196
				l-0.036,0.019c-1.421-0.009-2.942-0.656-4.589-1.952c1.656,2.267,3.851,3.904,6.569,4.932c3.113,0.981,6.227,1.052,9.332,0.215
				h0.054c3.015-0.829,5.571-2.529,7.676-5.102c0.971-1.35,1.584-2.636,1.827-3.87c1.574,0.054,2.708-0.378,3.41-1.295l-0.018-0.027
				c-0.522,0.179-1.548,0.126-3.069-0.171v-0.163c0-0.008,0-0.008,0.01,0c1.664-0.18,2.646-0.692,2.96-1.539
				c-1.161,0.432-2.304,0.44-3.438,0.037C143.672,33.122,142.936,31.764,141.657,30.531z"/>
		</g>
	</g>
	<g id="Linkedin">
		<g id="Circle_49_">
			<path fill="#999999" d="M183,58.267c-11.58,0-21-9.42-21-21s9.42-21,21-21s21,9.42,21,21S194.58,58.267,183,58.267z M183,18.267
				c-10.477,0-19,8.523-19,19s8.523,19,19,19s19-8.523,19-19S193.477,18.267,183,18.267z"/>
		</g>
		<g>
			<g>
				<path fill="#999999" d="M183.746,36.292v-0.031c-0.006,0.01-0.013,0.021-0.02,0.031H183.746z"/>
			</g>
			<g>
				<path fill="#999999" d="M191.426,27.316h-16.853c-0.807,0-1.461,0.639-1.461,1.426v17.05c0,0.786,0.654,1.426,1.461,1.426
					h16.853c0.808,0,1.462-0.64,1.462-1.426v-17.05C192.888,27.955,192.233,27.316,191.426,27.316z M179.106,43.975h-2.987V34.99
					h2.987V43.975z M177.613,33.763h-0.02c-1.002,0-1.65-0.69-1.65-1.553c0-0.882,0.668-1.552,1.689-1.552s1.65,0.67,1.67,1.552
					C179.303,33.072,178.654,33.763,177.613,33.763z M189.876,43.975h-2.986v-4.808c0-1.208-0.432-2.032-1.513-2.032
					c-0.825,0-1.316,0.556-1.532,1.093c-0.079,0.192-0.099,0.46-0.099,0.729v5.018h-2.987c0,0,0.039-8.143,0-8.985h2.987v1.272
					c0.397-0.612,1.107-1.484,2.692-1.484c1.965,0,3.438,1.285,3.438,4.045V43.975L189.876,43.975z"/>
			</g>
		</g>
	</g>
</g>
</svg>
