<?xml version="1.0" encoding="utf-8"?>
<!-- Generator: Adobe Illustrator 16.2.1, SVG Export Plug-In . SVG Version: 6.00 Build 0)  -->
<!DOCTYPE svg PUBLIC "-//W3C//DTD SVG 1.1//EN" "http://www.w3.org/Graphics/SVG/1.1/DTD/svg11.dtd">
<svg version="1.1" id="Layer_1" xmlns="http://www.w3.org/2000/svg" xmlns:xlink="http://www.w3.org/1999/xlink" x="0px" y="0px"
	 width="188.65px" height="93.321px" viewBox="0 0 188.65 93.321" enable-background="new 0 0 188.65 93.321" xml:space="preserve">
<g>
	<g>
		<path fill="#C9C9C9" d="M24.359,30.285l-3.39,19.77h-2.43l-1.979-14.31l-2.16,14.31h-2.43L8.67,30.285H7.051v-2.13h6v2.13H11.58
			l1.83,13.11l2.279-15.24h2.131l2.1,15.27l1.92-13.14h-1.471v-2.13h5.61v2.13H24.359z"/>
		<path fill="#C9C9C9" d="M27.119,50.055v-2.131h1.621V30.285h-1.621v-2.13h10.71v5.91H35.1v-3.78h-3.63v7.32h4.229v2.13H31.47
			v8.189h3.659v-3.87h2.73v6H27.119z"/>
		<path fill="#C9C9C9" d="M7.68,76.055v-2.131h1.531l-0.721-4.14H4.53l-0.72,4.14h1.71v2.131H0v-2.131h1.32l3.391-17.639h-1.59
			v-2.131h4.979l3.84,19.77h1.319v2.131H7.68z M6.42,58.625l-1.529,9.029h3.24L6.42,58.625z"/>
		<path fill="#C9C9C9" d="M24.42,76.055c-1.439,0-2.34-0.541-2.34-2.61v-5.34c0-1.229-0.48-2.04-2.07-2.04h-1.68v7.859h1.56v2.131
			H13.98v-2.131H15.6V56.285H13.98v-2.131h6.33c3.09,0,4.469,1.261,4.469,4.051v3.779c0,1.68-0.629,2.67-2.31,3.03
			c1.53,0.36,2.34,1.29,2.34,2.939v5.13c0,0.66,0.149,0.84,0.78,0.84h0.66v2.131H24.42z M22.05,58.324
			c0-1.229-0.479-2.039-2.069-2.039h-1.65v7.649h1.65c1.56,0,2.069-0.75,2.069-2.04V58.324z"/>
		<path fill="#C9C9C9" d="M27.119,76.055v-2.131h1.621V56.285h-1.621v-2.131h10.71v5.91H35.1v-3.779h-3.63v7.319h4.229v2.13H31.47
			v8.189h3.659v-3.869h2.73v6H27.119z"/>
	</g>
	<path fill="#C9C9C9" d="M174.814,68.726h-2.999l-3,2.304l-1.838,1.798l-11.84,2.316l-21.222,4.027L79.81,90.105l-17.036,2.146
		l-6.606,1.07l-5.096-27.477l-2.408-15.341l-4.151-27.3l5.994-4.292l1.847-0.69l7.827-8.032l0.707,10.107l12.683-2.077
		l61.348-12.452L161.438,0l3.322,3.054l4.288,1.329l3.458,7.609l3.228,2.768l3.69,0.231l1.961,1.385l-3.343,3.46v4.38l-2.77,4.383
		l-0.23,2.304l1.846,1.846l-0.23,3.459l-3.229,1.614l1.154,3.922l0.231,1.615l3.919,0.46l1.385,3.691l5.072,3.461l3.46,2.303v1.154
		l-4.613,4.381l-2.304,3.229l-2.077,3.921l-3.229,1.845L174.814,68.726L174.814,68.726z M71.318,37.334v-5.13
		c0-2.85-1.47-4.05-4.469-4.05h-6.541v2.13h1.621v17.639h-1.621v2.131h5.971v-2.131h-1.62v-6.54h2.19
		C70.119,41.384,71.318,40.004,71.318,37.334z M68.589,37.214c0,1.29-0.51,2.04-2.069,2.04h-1.86v-8.97h1.86
		c1.619,0,2.069,0.81,2.069,2.04V37.214z M83.559,50.055v-6h-2.73v3.87h-3.659v-8.189h4.229v-2.13h-4.229v-7.32h3.63v3.78h2.73
		v-5.91H72.818v2.13h1.621v17.639h-1.621v2.131H83.559z M98.019,30.285v-2.13h-5.521v2.13h1.471v11.94l-4.74-14.07h-4.14v2.13h1.62
		v17.639h-1.62v2.131h5.521v-2.131h-1.471V35.325l4.98,14.73h2.279v-19.77H98.019z M111.938,30.285v-2.13h-5.52v2.13h1.471v11.94
		l-4.74-14.07h-4.141v2.13h1.621v17.639h-1.621v2.131h5.521v-2.131h-1.47V35.325l4.979,14.73h2.28v-19.77H111.938z M125.676,50.055
		v-2.131h-1.32l-3.84-19.769h-4.979v2.13h1.59l-3.391,17.639h-1.32v2.131h5.521v-2.131h-1.71l0.72-4.14h3.96l0.721,4.14h-1.531
		v2.131H125.676z M120.547,41.654h-3.24l1.529-9.029L120.547,41.654z M71.229,72.004v-4.379c0-1.771-0.9-2.701-2.43-2.94
		c1.65-0.45,2.279-1.38,2.279-3.03v-3.449c0-2.85-1.439-4.051-4.469-4.051h-6.301v2.131h1.621v17.639h-1.621v2.131h6.45
		C70.029,76.055,71.229,74.674,71.229,72.004z M68.35,61.564c0,1.32-0.541,2.04-2.07,2.04h-1.62v-7.319h1.62
		c1.59,0,2.07,0.81,2.07,2.039V61.564z M68.499,71.885c0,1.319-0.511,2.039-2.069,2.039h-1.771v-8.189h1.771
		c1.59,0,2.069,0.811,2.069,2.04V71.885z M84.818,56.285v-2.131h-5.67v2.131h1.439v16.02c0,1.35-0.66,1.89-2.039,1.89
		c-1.53,0-2.04-0.63-2.04-1.89v-16.02h1.44v-2.131h-5.791v2.131h1.621v15.839c0,2.97,1.649,4.2,4.709,4.2c3.21,0,4.71-1.38,4.71-4.2
		V56.285H84.818z M91.838,76.055v-2.131h-1.619V56.285h1.619v-2.131h-5.969v2.131h1.619v17.639h-1.619v2.131H91.838z
		 M103.628,76.055v-6h-2.729v3.869h-3.33V56.285h1.74v-2.131h-6.09v2.131h1.619v17.639h-1.619v2.131H103.628z M114.156,60.064v-5.91
		h-11.43v5.91h2.43v-3.899h1.92v17.759h-1.74v2.131h6.21v-2.131h-1.74V56.165h1.92v3.899H114.156z"/>
	<g>
		<g>
			<path fill="#FFFFFF" d="M153.861,22.276c-0.293,0-0.526-0.071-0.699-0.215c-0.17-0.142-0.257-0.426-0.257-0.852v-2.184
				c0-0.253-0.06-0.456-0.179-0.607c-0.118-0.151-0.341-0.227-0.668-0.227h-0.687v3.214h0.638v0.87h-2.416v-0.87h0.662v-7.213
				h-0.662v-0.871h2.588c0.637,0,1.102,0.133,1.393,0.398c0.289,0.266,0.436,0.685,0.436,1.257v1.546
				c0,0.344-0.072,0.617-0.215,0.822c-0.144,0.205-0.387,0.344-0.73,0.417c0.639,0.147,0.957,0.548,0.957,1.202v2.098
				c0,0.139,0.021,0.231,0.061,0.276c0.041,0.044,0.127,0.068,0.26,0.068h0.269v0.87H153.861z M152.893,15.026
				c0-0.253-0.059-0.456-0.177-0.607c-0.12-0.151-0.343-0.226-0.669-0.226h-0.675v3.127h0.675c0.318,0,0.539-0.074,0.662-0.22
				c0.122-0.147,0.184-0.351,0.184-0.614V15.026z"/>
			<path fill="#FFFFFF" d="M158.659,21.859c-0.274,0.278-0.746,0.417-1.417,0.417h-2.637v-0.87h0.662v-7.213h-0.662v-0.871h2.576
				c0.621,0,1.08,0.129,1.379,0.387s0.448,0.68,0.448,1.269v1.411c0,0.344-0.069,0.613-0.208,0.81
				c-0.14,0.196-0.381,0.339-0.724,0.43c0.311,0.048,0.554,0.169,0.729,0.361c0.176,0.193,0.264,0.472,0.264,0.84v1.791
				C159.07,21.168,158.934,21.581,158.659,21.859z M157.893,15.026c0-0.253-0.06-0.456-0.178-0.607
				c-0.118-0.151-0.342-0.226-0.67-0.226h-0.661v2.993h0.661c0.312,0,0.53-0.072,0.658-0.215c0.126-0.144,0.189-0.35,0.189-0.62
				V15.026z M157.953,18.891c0-0.254-0.059-0.456-0.177-0.607s-0.342-0.228-0.669-0.228h-0.724v3.35h0.724
				c0.318,0,0.541-0.071,0.662-0.215c0.123-0.143,0.184-0.35,0.184-0.62V18.891z"/>
		</g>
		<path fill="#FFFFFF" d="M154.35,26.143c-4.601,0-8.344-3.743-8.344-8.344s3.743-8.344,8.344-8.344
			c4.602,0,8.344,3.743,8.344,8.344S158.951,26.143,154.35,26.143z M154.35,10.284c-4.144,0-7.514,3.371-7.514,7.515
			s3.37,7.515,7.514,7.515c4.145,0,7.517-3.371,7.517-7.515S158.494,10.284,154.35,10.284z"/>
	</g>
</g>
</svg>
