<?xml version="1.0" encoding="utf-8"?>
<!-- Generator: Adobe Illustrator 16.2.1, SVG Export Plug-In . SVG Version: 6.00 Build 0)  -->
<!DOCTYPE svg PUBLIC "-//W3C//DTD SVG 1.1//EN" "http://www.w3.org/Graphics/SVG/1.1/DTD/svg11.dtd">
<svg version="1.1" id="Layer_1" xmlns="http://www.w3.org/2000/svg" xmlns:xlink="http://www.w3.org/1999/xlink" x="0px" y="0px"
	 width="319px" height="217px" viewBox="0 0 319 217" enable-background="new 0 0 319 217" xml:space="preserve">
<g>
	<path fill="#F6DDA5" d="M224.173,77.898c-69.695,8.736-89.777-27.882-89.777-27.882c0-27.494,20.097-49.783,44.889-49.783
		c24.791,0,44.889,22.289,44.889,49.783v27.492"/>
	<circle fill="#474847" cx="196.682" cy="40.9" r="5.231"/>
	<circle fill="#474847" cx="160.906" cy="40.9" r="5.231"/>
	<rect x="124.117" y="63.798" fill="#AFDEE2" width="111.378" height="110.569"/>
	<path fill="#AFDEE2" d="M230.144,151.458l38.981,9.481l-19.49,33.552l8.353,4.557c0,0,33.414,2.024,26.326,17.719h-46.07
		l-5.569-18.732l3.038-24.807l-41.994-12.288"/>
	<path fill="#AFDEE2" d="M129.712,151.458l-38.982,9.481l19.49,33.552l-8.353,4.557c0,0-33.414,2.024-26.326,17.719h46.07
		l5.569-18.732l-3.038-24.807l41.995-12.288"/>
	<rect x="124.102" y="72.713" fill="#E15726" width="111.378" height="79.562"/>
	<path fill="#F1B25F" d="M317.269,67.981l-0.895-9.518l-11.449,7.244l-201.386-7.912c0,0-101.395-52.928-102.444,1.386
		L317.269,67.981z"/>
	<path fill="#FFCC67" d="M316.813,62.66l1.092,12.276l-12.614-6.047l-201.515-3.286c0,0-104.176,47.215-102.208-7.072L316.813,62.66
		z"/>
	<polygon fill="#FCCB98" points="71.214,119.613 71.315,130.378 266.724,65.789 266.217,12.259 248.803,9.002 252.172,58.133 	"/>
	<polygon opacity="0.3" fill="#CB9866" enable-background="new    " points="258.331,10.784 248.803,9.002 252.172,58.133 
		79.046,116.952 78.509,121.755 260.623,61.024 	"/>
	<polyline fill="#EE3A39" points="249.601,22.013 266.37,28.459 266.536,46.009 251.143,43.127 249.601,22.013 	"/>
	<path fill="#333333" d="M71.515,134.432c1.687-1.894,2.021-4.654,2.021-4.654l7.757-2.564l0.193-10.966l-7.756,2.273
		c0,0,0.289-2.021-1.802-5.569l-1.979,0.225l-0.097,21.568L71.515,134.432z"/>
	<polyline opacity="0.4" fill="#F69668" enable-background="new    " points="186.621,82.18 180.713,83.75 179.552,92.437 
		187.169,90.481 186.621,82.18 	"/>
	<polyline opacity="0.4" fill="#F69668" enable-background="new    " points="198.523,78.7 192.615,80.271 191.453,88.957 
		199.07,87.002 198.523,78.7 	"/>
	<polyline opacity="0.4" fill="#F69668" enable-background="new    " points="174.754,85.871 168.845,87.442 167.685,96.127 
		175.301,94.173 174.754,85.871 	"/>
	<path opacity="0.3" enable-background="new    " d="M225.069,75.259c-9.752-5.017-20.495-6.072-30.399-3.759
		c-2.982-4.488-7.039-8.24-12.055-10.82c-16.994-8.74-38.546-0.711-48.139,17.934c-9.592,18.647-3.59,40.851,13.404,49.591
		c1.002,0.516,2.021,0.971,3.051,1.371c0.571,0.252,1.232,0.497,1.997,0.735c6.586,2.05,10.95,4.856,13.797,7.425
		c4.111,6.819,10.104,12.619,17.705,16.528c21.816,11.224,48.601,2.634,59.823-19.183C255.476,113.264,246.887,86.48,225.069,75.259
		z"/>
	<path fill="#FDD6B2" d="M148.387,125.354c16.994,8.741,38.546,0.711,48.138-17.937c9.592-18.646,3.591-40.849-13.403-49.588
		c-16.994-8.741-38.546-0.712-48.139,17.933C125.392,94.41,131.394,116.613,148.387,125.354z"/>
	<circle fill="#FDD6B2" cx="205.257" cy="111.91" r="44.423"/>
	<path fill="#FCF8CD" d="M211.441,67.88c0,0-9.263,2.849-22.371-7.085c-13.107-9.933-3.982,16.596-3.982,16.596l26.022,11.393
		l10.528-9.955L211.441,67.88z"/>
	<path fill="#FDD6B2" d="M172.21,141.539c0,0-3.07-9.192-18.775-14.079c-15.703-4.888,11.187-12.892,11.187-12.892l24.4,14.544
		l-1.977,14.355L172.21,141.539z"/>
	<path fill="#EEA867" d="M153.154,119.803c16.994,8.741,38.547,0.712,48.139-17.936s3.591-40.85-13.403-49.59
		c-16.994-8.741-38.546-0.712-48.139,17.934C130.16,88.857,136.16,111.061,153.154,119.803z"/>
	<path fill="#EEA867" d="M189.704,145.862c21.817,11.222,48.602,2.634,59.824-19.184c11.222-21.817,2.633-48.601-19.185-59.822
		c-21.816-11.221-48.6-2.634-59.821,19.183C159.3,107.855,167.888,134.641,189.704,145.862z"/>
	<path fill="#DE9C66" d="M138.953,70.879c-9.592,18.646-3.59,40.85,13.404,49.591c16.994,8.742,38.546,0.712,48.138-17.935"/>
	<path fill="#DE9C66" d="M169.724,86.706c-11.222,21.817-2.633,48.601,19.183,59.822c21.818,11.223,48.602,2.635,59.823-19.183"/>
	<path fill="#EEA867" d="M214.394,62.141c0,0-9.262,2.848-22.371-7.084c-13.107-9.934-3.982,16.595-3.982,16.595l26.021,11.392
		l10.53-9.955L214.394,62.141z"/>
	<path fill="#DE9C66" d="M176.978,135.987c0,0-3.07-9.192-18.774-14.079c-15.703-4.887,11.186-12.891,11.186-12.891l24.401,14.543
		l-1.977,14.356L176.978,135.987z"/>
	
		<ellipse transform="matrix(-0.6375 0.7705 -0.7705 -0.6375 360.9941 5.1678)" fill="#B6865C" cx="179.281" cy="87.514" rx="16.58" ry="16.604"/>
	<polygon fill="#EEA867" points="75.666,17.56 69.034,28.482 57.51,26.862 52.799,22.965 60.177,8.091 65.89,8.334 	"/>
	<polygon fill="#CCCBCB" points="212.934,96.105 71.123,15.485 67.271,24.907 206.574,109.182 	"/>
	<polygon opacity="0.5" fill="#FFFFFF" enable-background="new    " points="207.95,101.889 67.715,21.509 66.447,21.804 
		207.2,103.06 	"/>
	<polygon opacity="0.5" fill="#FFFFFF" enable-background="new    " points="207.306,104.509 67.071,24.129 65.804,24.424 
		206.557,105.68 	"/>
	<polygon opacity="0.5" fill="#FFFFFF" enable-background="new    " points="209.198,99.452 68.963,19.072 67.696,19.367 
		208.448,100.622 	"/>
	<polygon opacity="0.5" fill="#FFFFFF" enable-background="new    " points="211.085,97.018 70.85,16.638 69.583,16.934 
		210.336,98.189 	"/>
	<polygon fill="#D39868" points="218.392,98.023 208.67,112.545 200.973,111.928 215.201,91.753 	"/>
	<polygon fill="#CCCBCB" points="59.275,25.859 57.806,31.871 56.131,31.777 58.234,24.998 	"/>
	<polygon fill="#CCCBCB" points="56.64,23.679 55.17,29.69 53.495,29.598 55.6,22.818 	"/>
	<polygon fill="#CCCBCB" points="63.485,9.582 65.842,3.859 64.433,2.947 62.138,9.664 	"/>
	<polygon fill="#CCCBCB" points="66.706,11.179 69.062,5.456 67.653,4.545 65.358,11.261 	"/>
	<polyline opacity="0.2" fill="#020202" enable-background="new    " points="124.117,67.31 102.348,92.931 120.346,125.27 
		195.878,123.688 195.878,100.121 130.415,99.374 124.117,80.633 124.117,66.576 	"/>
	<polygon opacity="0.2" fill="#020202" enable-background="new    " points="248.729,84.111 254.457,102.015 254.457,104.991 
		215.63,104.08 215.582,84.111 	"/>
	<polyline fill="#F5DCA4" points="124.117,65.377 102.348,90.999 120.346,123.338 195.878,121.755 195.878,98.189 130.415,97.441 
		124.117,78.7 124.117,64.645 	"/>
	<polygon fill="#F5DCA4" points="248.729,82.18 254.457,100.083 254.457,103.06 215.63,102.148 215.582,82.18 	"/>
	<path fill="#EE4756" d="M137.218,112.482c0,0,10.366,7.383,20.812,7.022c10.444-0.361,3.668-9.038,3.668-9.038l-12.125-12.713
		L137.218,112.482z"/>
	<path fill="#6CC396" d="M149.759,98.983c-10.96,10.549-27.041,11.621-35.92,2.396c-8.878-9.225-7.192-25.253,3.767-35.802
		c10.959-10.547,27.041-11.619,35.92-2.396C162.403,72.405,160.718,88.436,149.759,98.983z"/>
	<path fill="#EE4756" d="M163.281,85.778c0,0,7.806,11.895,6.956,23.547c-0.849,11.649-10.253,3.71-10.253,3.71l-13.682-14.087
		L163.281,85.778z"/>
	<path fill="#B5D3EE" d="M150.763,97.985c0,0,6.532,4.193,3.396,7.213c-3.136,3.018-7.2,7.017-14.533,9.537
		c-7.332,2.52-8.195-6.564-8.195-6.564L150.763,97.985z"/>
	<path fill="#B5D3EE" d="M146.293,102.288c0,0,3.774,6.848,7.313,3.442c3.539-3.408,8.219-7.824,11.669-15.683
		c3.448-7.858-6.122-8.561-6.122-8.561L146.293,102.288z"/>
	<path fill="#EE4756" d="M122.317,45.872c0,0-9.624-6.697-18.804-9.536c-9.179-2.837-20.589-11.726-21.39-16.073
		c-0.801-4.347-2.517,0.411-2.517,0.411c-1.243,2.307-1.646,6.22-0.769,8.693c0,0,0.237,3.169,10.169,21.352
		c9.932,18.18,8.776,18.766,8.776,18.766L122.317,45.872z"/>
	<path fill="#8ACEB6" d="M153.881,103.266c-9.066,8.727-24.476,7.429-34.417-2.899c-9.94-10.328-10.65-25.775-1.583-34.502
		c9.066-8.726,24.476-7.428,34.417,2.899C162.238,79.091,162.947,94.539,153.881,103.266z"/>
	<path fill="#FFFFFF" d="M134.095,82.709c-9.225,8.879-22.607,9.94-29.893,2.371c-7.286-7.568-5.714-20.902,3.511-29.778
		c9.225-8.879,22.608-9.94,29.894-2.372C144.891,60.498,143.319,73.83,134.095,82.709z"/>
	<path fill="#F5D1CD" d="M97.678,69.296c0,0-3.005,1.112-2.482,4.447c0.523,3.334,6.212,4.73,6.212,4.73l0.627-6.726L97.678,69.296z
		"/>
	<path fill="#F5D1CD" d="M122.079,45.768c0,0,1.227-2.961,4.539-2.312c3.312,0.649,4.49,6.387,4.49,6.387l-6.745,0.371
		L122.079,45.768z"/>
	<path fill="#F5D1CD" d="M131.075,64.715c-4.336,4.174-11.234,4.041-15.409-0.295c-4.174-4.334-4.041-11.232,0.294-15.406
		c4.337-4.174,11.235-4.042,15.409,0.295C135.543,53.644,135.411,60.542,131.075,64.715z"/>
	<path fill="#F5D1CD" d="M116.229,79.005c-4.336,4.174-11.234,4.041-15.408-0.295c-4.175-4.336-4.042-11.235,0.293-15.408
		c4.337-4.172,11.236-4.04,15.41,0.294C120.697,67.932,120.564,74.831,116.229,79.005z"/>
	<path fill="#F5D1CD" d="M124.052,46.029c0,0-5.498-1.289-16.077,8.893C97.396,65.103,97.901,70.348,97.901,70.348l5.488,0.943
		l10.938-5.848L124.052,46.029z"/>
	
		<ellipse transform="matrix(0.7205 -0.6935 0.6935 0.7205 -13.8176 102.5934)" fill="#E9C4BD" cx="120.355" cy="68.437" rx="4.558" ry="3.567"/>
	
		<ellipse transform="matrix(0.7205 -0.6934 0.6934 0.7205 -28.7473 148.211)" fill="#DAB08A" cx="169.498" cy="109.77" rx="7.332" ry="3.753"/>
	
		<ellipse transform="matrix(0.7205 -0.6935 0.6935 0.7205 -38.4062 143.6846)" fill="#DAB08A" cx="159.029" cy="119.483" rx="7.33" ry="3.627"/>
	<path fill="#FFFFFF" d="M121.619,47.792c1.209-0.511,2.605,0.059,3.115,1.265c0.512,1.21-0.056,2.605-1.265,3.116l-7.301,3.085
		c-1.21,0.511-2.605-0.058-3.116-1.265c-0.51-1.21,0.056-2.604,1.266-3.116L121.619,47.792z"/>
	<path fill="#FFFFFF" d="M100.101,68.205c-0.557,1.188-0.042,2.605,1.145,3.161c1.189,0.558,2.604,0.045,3.161-1.145l3.362-7.177
		c0.557-1.188,0.042-2.605-1.145-3.16c-1.189-0.557-2.605-0.044-3.162,1.144L100.101,68.205z"/>
	<circle fill="#6F6C6D" cx="120.737" cy="55.69" r="2.18"/>
	<circle fill="#6F6C6D" cx="108.461" cy="67.505" r="2.18"/>
	<path fill="none" stroke="#969595" stroke-width="0.5063" stroke-miterlimit="10" d="M135.212,53.591"/>
	<path fill="#6F6C6D" d="M128.731,77.422c-1.735,1.669-3.818,2.319-4.653,1.453c-0.834-0.868-0.104-2.925,1.63-4.594
		s3.817-2.319,4.652-1.453C131.194,73.695,130.465,75.752,128.731,77.422z"/>
	
		<rect x="124.455" y="67.174" transform="matrix(0.6935 0.7204 -0.7204 0.6935 92.404 -68.6012)" fill="#FFFFFF" width="4.755" height="14.266"/>
	<path fill="#9EC8EA" d="M98.298,71.959"/>
	<polygon fill="#9EC8EA" points="130.438,96.829 112.865,91.591 123.518,115.77 	"/>
	<polygon fill="#9EC8EA" points="106.281,90.13 112.865,91.591 122.079,100.083 119.569,107.653 108.672,98.892 106.281,92.437 	"/>
	<polygon fill="#E15726" points="177.482,97.275 175.388,122.184 120.346,123.338 102.348,90.999 105.995,86.706 107.993,87.98 
		108.472,90.556 	"/>
	<polyline fill="#E15726" points="241.697,102.76 234.146,82.18 248.729,82.18 254.457,97.985 254.457,103.06 241.697,102.76 	"/>
	<polyline opacity="0.04" enable-background="new    " points="135.183,161.386 107.993,167.923 118.558,196.78 108.672,216.767 
		121.611,216.767 126.594,200.007 124.465,175.862 124.143,173.228 155.529,174.367 235.572,174.367 232.674,198.034 
		238.243,216.767 254.457,216.767 239.509,198.299 248.729,167.416 214.569,161.342 135.183,161.386 	"/>
	<polygon opacity="0.02" enable-background="new    " points="195.878,112.494 124.928,111.91 109.06,103.06 120.346,123.338 
		195.878,121.755 	"/>
	<polygon opacity="0.02" enable-background="new    " points="252.269,92.619 215.582,92.789 215.63,102.148 254.457,103.06 
		254.457,100.083 	"/>
</g>
</svg>
