<?xml version="1.0" encoding="utf-8"?>
<!-- Generator: Adobe Illustrator 16.2.1, SVG Export Plug-In . SVG Version: 6.00 Build 0)  -->
<!DOCTYPE svg PUBLIC "-//W3C//DTD SVG 1.1//EN" "http://www.w3.org/Graphics/SVG/1.1/DTD/svg11.dtd">
<svg version="1.1" id="Layer_1" xmlns="http://www.w3.org/2000/svg" xmlns:xlink="http://www.w3.org/1999/xlink" x="0px" y="0px"
	 width="295px" height="75px" viewBox="0 0 295 75" enable-background="new 0 0 295 75" xml:space="preserve">
<g>
	<path fill="#FFFFFF" d="M91.943,42.594c-0.333-0.725-0.797-1.343-1.383-1.848c-0.577-0.494-1.266-0.901-2.051-1.206
		c-0.757-0.296-1.579-0.551-2.456-0.761c-0.438-0.088-0.964-0.188-1.577-0.306c-0.578-0.106-1.127-0.273-1.635-0.493
		c-0.489-0.209-0.917-0.488-1.271-0.829c-0.307-0.294-0.457-0.675-0.458-1.17c0-0.602,0.255-1.031,0.806-1.349
		c0.612-0.354,1.355-0.534,2.22-0.535c0.901,0,1.67,0.178,2.282,0.527c0.633,0.363,1.173,0.82,1.605,1.356
		c0.148,0.185,0.417,0.217,0.605,0.074l3.054-2.32c0.18-0.136,0.227-0.387,0.107-0.579c-0.807-1.297-1.907-2.235-3.27-2.791
		c-1.323-0.538-2.725-0.811-4.186-0.811c-0.998,0.001-1.998,0.141-2.978,0.415c-0.992,0.275-1.889,0.696-2.667,1.248
		c-0.792,0.561-1.437,1.279-1.917,2.134c-0.485,0.865-0.73,1.886-0.728,3.034c0.002,1.058,0.196,1.963,0.579,2.691
		c0.379,0.725,0.894,1.332,1.526,1.805c0.618,0.459,1.334,0.832,2.132,1.105c0.77,0.266,1.593,0.503,2.462,0.709
		c0.429,0.087,0.931,0.193,1.496,0.323c0.539,0.123,1.059,0.289,1.543,0.496c0.453,0.191,0.846,0.46,1.169,0.794
		c0.287,0.296,0.426,0.671,0.427,1.14c0,0.345-0.094,0.639-0.285,0.896c-0.209,0.285-0.486,0.523-0.821,0.711
		c-0.352,0.196-0.766,0.342-1.228,0.437c-0.477,0.097-0.956,0.146-1.437,0.147c-1.041,0-1.929-0.226-2.637-0.67
		c-0.757-0.478-1.453-1.026-2.067-1.641c-0.16-0.159-0.413-0.17-0.588-0.027l-2.967,2.455c-0.178,0.144-0.212,0.407-0.076,0.593
		c1.066,1.457,2.301,2.555,3.669,3.105c1.335,0.535,2.901,0.889,4.656,0.889h0.032c1.048,0,2.103-0.204,3.135-0.447
		c1.051-0.245,2.003-0.689,2.83-1.24c0.834-0.561,1.524-1.312,2.051-2.197c0.531-0.896,0.801-1.99,0.798-3.228
		C92.444,44.21,92.275,43.318,91.943,42.594z"/>
	<path fill="#FFFFFF" d="M116.469,36.4c-0.516-1.372-1.262-2.589-2.214-3.613c-0.957-1.029-2.126-1.785-3.475-2.359
		c-1.34-0.569-2.853-0.8-4.495-0.8h-0.026c-1.455,0-2.891,0.272-4.266,0.91c-1.018,0.471-1.886,1.062-2.589,1.818L99.4,30.508
		c0-0.241-0.196-0.444-0.437-0.444c0,0,0,0-0.001,0l-3.932,0.001c-0.243,0-0.438,0.194-0.437,0.435l0.06,33.026
		c0,0.115,0.046,0.314,0.128,0.399c0.082,0.081,0.193,0.216,0.31,0.216c0,0,0,0,0.001,0l3.932-0.098
		c0.241,0,0.435-0.242,0.435-0.484l-0.025-14.154c0.665,0.717,1.495,1.305,2.481,1.775c1.36,0.645,2.828,0.967,4.384,0.967
		c1.653-0.003,3.172-0.299,4.518-0.878c1.346-0.576,2.511-1.386,3.463-2.403c0.95-1.013,1.692-2.228,2.203-3.603
		c0.509-1.371,0.767-2.869,0.763-4.456C117.245,39.253,116.982,37.77,116.469,36.4z M105.628,33.624v0.436
		c1.092,0,1.955,0.171,2.739,0.506c0.786,0.338,1.5,0.802,2.041,1.378c0.54,0.579,0.988,1.292,1.289,2.122
		c0.303,0.836,0.469,1.765,0.471,2.755c0.003,0.99-0.144,1.918-0.443,2.755c-0.298,0.83-0.719,1.547-1.257,2.124
		c-0.537,0.58-1.206,1.048-1.99,1.387c-0.784,0.34-1.68,0.514-2.681,0.517c-0.978,0-1.871-0.171-2.653-0.507
		c-0.786-0.337-1.458-0.8-1.997-1.379c-0.541-0.576-0.966-1.293-1.267-2.119c-0.304-0.834-0.458-1.76-0.46-2.753
		c-0.001-0.994,0.15-1.921,0.449-2.757c0.297-0.828,0.722-1.545,1.261-2.125c0.536-0.58,1.206-1.046,1.991-1.386
		c0.786-0.34,1.595-0.513,2.578-0.515L105.628,33.624L105.628,33.624z"/>
	<path fill="#FFFFFF" d="M137.774,51.081c-0.058-0.544-0.102-1.124-0.132-1.724c-0.03-0.592-0.046-1.261-0.047-1.988l-0.02-10.569
		c0-0.954-0.183-1.883-0.539-2.762c-0.359-0.887-0.92-1.681-1.666-2.362c-0.741-0.677-1.698-1.144-2.842-1.539
		c-1.127-0.388-2.48-0.508-4.021-0.508h-0.034c-1.497,0-3.015,0.194-4.512,0.72c-1.506,0.532-2.849,1.298-3.992,2.355
		c-0.087,0.08-0.138,0.173-0.14,0.29c-0.003,0.118,0.041,0.223,0.122,0.307l2.364,2.438c0.153,0.158,0.401,0.175,0.577,0.042
		c0.35-0.264,0.715-0.543,1.096-0.836c0.352-0.271,0.75-0.513,1.185-0.718c0.436-0.206,0.932-0.383,1.474-0.522
		c0.53-0.136,1.161-0.206,1.893-0.208c0.778,0,1.452,0.113,2.007,0.335c0.551,0.223,1.016,0.525,1.38,0.9
		c0.366,0.378,0.645,0.807,0.827,1.273c0.184,0.473,0.278,0.949,0.278,1.415l0.001,0.437l-2.446,0.005
		c-1.59,0.002-3.108,0.133-4.512,0.387c-1.424,0.257-2.688,0.687-3.758,1.276c-1.09,0.603-1.965,1.393-2.597,2.35
		c-0.641,0.973-0.963,2.185-0.962,3.605c0.003,1.083,0.209,2.053,0.617,2.878c0.408,0.826,0.97,1.529,1.675,2.092
		c0.698,0.555,1.52,0.986,2.444,1.261c0.905,0.27,1.867,0.415,2.859,0.415h0.02c1.628,0,3.086-0.308,4.332-0.887
		c0.958-0.448,1.823-1.141,2.584-2.059c0.022,0.666,0.062,1.392,0.118,2.051c0.02,0.227,0.208,0.458,0.436,0.458l0,0l3.495-0.065
		c0.123-0.001,0.243-0.083,0.325-0.177C137.747,51.357,137.786,51.204,137.774,51.081z M124.202,43.459
		c0.46-0.475,1.064-0.85,1.799-1.118c0.764-0.279,1.626-0.474,2.561-0.571c0.96-0.101,1.906-0.154,2.816-0.154l1.661-0.003
		l0.001,0.873c0.001,0.651-0.095,1.324-0.285,1.995c-0.186,0.655-0.496,1.259-0.923,1.794c-0.422,0.53-0.988,0.965-1.682,1.305
		c-0.692,0.333-1.554,0.505-2.58,0.507c-1.268,0-2.277-0.24-3-0.71c-0.675-0.442-1.005-1.163-1.007-2.212
		C123.562,44.462,123.773,43.903,124.202,43.459z M126.354,51.671L126.354,51.671L126.354,51.671L126.354,51.671z"/>
	<path fill="#FFFFFF" d="M156.649,45.323c-0.083-0.087-0.2-0.137-0.321-0.13c-0.122,0.007-0.232,0.059-0.313,0.151
		c-0.629,0.712-1.317,1.259-2.05,1.627c-0.721,0.362-1.61,0.545-2.659,0.547c-0.947,0-1.809-0.168-2.559-0.504
		c-0.757-0.335-1.415-0.806-1.954-1.396c-0.543-0.594-0.971-1.304-1.272-2.107c-0.302-0.801-0.457-1.669-0.458-2.573
		c-0.002-0.914,0.129-1.803,0.39-2.644c0.258-0.834,0.644-1.582,1.146-2.222c0.496-0.632,1.121-1.135,1.858-1.499
		c0.735-0.363,1.617-0.548,2.638-0.55c1.027,0,1.92,0.181,2.654,0.54c0.752,0.368,1.483,0.917,2.175,1.633
		c0.166,0.17,0.435,0.178,0.609,0.019l2.966-2.715c0.089-0.078,0.14-0.187,0.143-0.304c0.006-0.116-0.037-0.229-0.115-0.314
		c-1.062-1.149-2.331-1.939-3.771-2.499c-1.423-0.55-2.932-0.755-4.484-0.755h-0.024c-1.679,0-3.226,0.215-4.595,0.775
		c-1.375,0.562-2.568,1.317-3.552,2.318c-0.98,1-1.753,2.193-2.297,3.584c-0.538,1.386-0.81,2.916-0.807,4.564
		c0.004,1.645,0.28,3.171,0.826,4.54c0.545,1.376,1.334,2.571,2.337,3.552c0.998,0.984,2.205,1.787,3.579,2.326
		c1.362,0.535,2.887,0.839,4.524,0.839h0.026c1.558,0,3.058-0.295,4.454-0.808c1.413-0.519,2.669-1.4,3.73-2.588
		c0.156-0.174,0.146-0.444-0.018-0.608L156.649,45.323z"/>
	<path fill="#FFFFFF" d="M181.606,40.742c-0.002-1.37-0.193-2.739-0.57-4.07c-0.381-1.345-1.004-2.572-1.854-3.645
		c-0.854-1.077-1.954-1.957-3.272-2.621c-1.317-0.664-2.943-0.995-4.823-0.995h-0.027c-1.599,0-3.094,0.292-4.454,0.867
		c-1.357,0.578-2.543,1.383-3.527,2.398c-0.979,1.015-1.754,2.224-2.311,3.596c-0.555,1.372-0.835,2.876-0.832,4.468
		c0.002,1.59,0.266,3.086,0.778,4.451c0.515,1.373,1.261,2.581,2.217,3.595c0.957,1.015,2.143,1.868,3.518,2.439
		c1.37,0.567,2.908,0.903,4.58,0.903h0.027c4.057,0,7.257-1.544,9.515-4.472c0.067-0.093,0.099-0.234,0.086-0.351
		c-0.016-0.114-0.077-0.231-0.169-0.302l-2.976-2.272c-0.187-0.143-0.456-0.112-0.604,0.069c-0.721,0.893-1.523,1.619-2.379,2.159
		c-0.83,0.523-1.823,0.788-2.971,0.79c-0.847,0-1.674-0.138-2.465-0.41c-0.793-0.268-1.497-0.655-2.099-1.145
		c-0.591-0.481-1.079-1.074-1.442-1.763c-0.295-0.556-0.472-1.169-0.526-1.825l16.151-0.031c0.239,0,0.435-0.196,0.435-0.436
		L181.606,40.742z M170.949,32.984v0.437c0.876,0,1.755,0.142,2.437,0.421c0.682,0.278,1.265,0.667,1.717,1.155
		c0.453,0.492,0.804,1.08,1.032,1.745c0.189,0.558,0.314,1.17,0.369,1.825l-11.484,0.021c0.05-0.496,0.184-1.002,0.398-1.511
		c0.283-0.663,0.688-1.275,1.2-1.817c0.511-0.54,1.148-0.986,1.895-1.327c0.739-0.337,1.548-0.51,2.441-0.511L170.949,32.984
		L170.949,32.984z"/>
	<path fill="#FFFFFF" d="M197.509,17.355c-0.576-0.151-1.13-0.176-1.635-0.207c-0.482-0.028-0.945,0.025-1.373,0.025h-0.03
		c-2.724,0-4.681,0.681-5.823,2.142c-1.119,1.429-1.682,3.568-1.677,6.423l0.009,4.178l-4.021-0.001
		c-0.241,0-0.438,0.193-0.438,0.433l0.009,3.407c0,0.116,0.048,0.238,0.129,0.321c0.081,0.081,0.189,0.139,0.308,0.139l0,0
		l4.021-0.02l0.031,16.958c0,0.241,0.195,0.535,0.436,0.535h0.002l3.93-0.113c0.119,0,0.229-0.098,0.31-0.179
		c0.084-0.083,0.129-0.218,0.129-0.335l-0.03-16.874l4.282-0.016c0.24,0,0.436-0.198,0.436-0.441l-0.006-3.409
		c0-0.117-0.048-0.138-0.129-0.22c-0.082-0.082-0.194-0.038-0.309-0.038l0,0l-4.241-0.082l-0.005-4.372
		c-0.002-0.708,0.031-1.366,0.101-1.913c0.063-0.503,0.202-0.949,0.419-1.304c0.204-0.34,0.483-0.6,0.846-0.784
		c0.374-0.187,0.896-0.285,1.568-0.286c0.375,0,0.727,0.025,1.049,0.079c0.32,0.053,0.658,0.147,1.007,0.28
		c0.127,0.048,0.266,0.035,0.38-0.035c0.117-0.068,0.192-0.187,0.21-0.32l0.432-3.498C197.858,17.614,197.721,17.41,197.509,17.355z
		"/>
	<g>
		<g>
			<path fill="#FFFFFF" d="M202.58,26.351c0,0,0.007,0,0.009,0c0.901,0,1.688-0.406,2.338-1.057c0.649-0.65,0.978-1.475,0.976-2.379
				c0-0.904-0.332-1.709-0.985-2.357c-0.649-0.648-1.436-0.985-2.342-0.985c-0.902,0.001-1.688,0.328-2.338,0.98
				c-0.65,0.65-0.979,1.437-0.978,2.34c0.002,0.904,0.335,1.761,0.984,2.411C200.895,25.951,201.681,26.351,202.58,26.351z
				 M202.58,25.768L202.58,25.768L202.58,25.768L202.58,25.768z"/>
			<path fill="#FFFFFF" d="M204.871,30.096c-0.084-0.082-0.196-0.031-0.311-0.031l0,0l-3.931-0.089
				c-0.243,0-0.439,0.147-0.438,0.389l0.037,20.683c0,0.116,0.048,0.219,0.131,0.301c0.081,0.082,0.191,0.123,0.308,0.123l0,0
				l3.932-0.015c0.241,0,0.437-0.199,0.437-0.44l-0.038-20.661C204.996,30.243,204.952,30.177,204.871,30.096z"/>
		</g>
		<g>
			<path fill="#FFFFFF" d="M202.58,26.351c0,0,0.007,0,0.009,0c0.901,0,1.688-0.406,2.338-1.057c0.649-0.65,0.978-1.475,0.976-2.379
				c0-0.904-0.332-1.709-0.985-2.357c-0.649-0.648-1.436-0.985-2.342-0.985c-0.902,0.001-1.688,0.328-2.338,0.98
				c-0.65,0.65-0.979,1.437-0.978,2.34c0.002,0.904,0.335,1.761,0.984,2.411C200.895,25.951,201.681,26.351,202.58,26.351z
				 M202.58,25.768L202.58,25.768L202.58,25.768L202.58,25.768z"/>
			<path fill="#FFFFFF" d="M204.871,30.096c-0.084-0.082-0.196-0.031-0.311-0.031l0,0l-3.931-0.089
				c-0.243,0-0.439,0.147-0.438,0.389l0.037,20.683c0,0.116,0.048,0.219,0.131,0.301c0.081,0.082,0.191,0.123,0.308,0.123l0,0
				l3.932-0.015c0.241,0,0.437-0.199,0.437-0.44l-0.038-20.661C204.996,30.243,204.952,30.177,204.871,30.096z"/>
		</g>
	</g>
	<path fill="#FFFFFF" d="M227.576,37.653c-0.002-1.42-0.222-2.673-0.65-3.726c-0.432-1.058-1.021-1.939-1.749-2.621
		c-0.731-0.68-1.593-1.188-2.566-1.511c-0.955-0.315-1.959-0.475-3.002-0.475c-1.67,0.004-3.165,0.37-4.45,1.09
		c-0.82,0.462-1.494,1.021-2.014,1.67l-0.002-1.788c0-0.116-0.046-0.122-0.127-0.205c-0.083-0.081-0.193-0.022-0.312-0.022l0,0
		l-3.932-0.096c-0.243,0-0.437,0.143-0.437,0.386l0.038,20.68c0,0.115,0.045,0.227,0.126,0.31c0.086,0.081,0.197,0.128,0.312,0.128
		l0,0l3.933-0.021c0.242-0.001,0.438-0.202,0.436-0.443l-0.02-10.661c-0.002-1.141,0.138-2.14,0.408-2.966
		c0.27-0.81,0.649-1.487,1.13-2.007c0.472-0.515,1.032-0.899,1.662-1.136c0.649-0.243,1.358-0.368,2.129-0.37
		c0.558,0,1.106,0.087,1.623,0.26c0.502,0.166,0.956,0.44,1.343,0.814c0.39,0.375,0.709,0.88,0.949,1.501
		c0.241,0.63,0.367,1.409,0.369,2.312l0.02,12.229c0,0.115,0.048,0.252,0.131,0.333c0.081,0.083,0.192,0.155,0.308,0.155l0,0
		l3.934-0.035c0.239,0,0.437-0.208,0.437-0.45L227.576,37.653z"/>
	<g>
		<g>
			<path fill="#FFFFFF" d="M235.423,29.958c-0.082-0.08-0.194-0.112-0.309-0.112h-0.002l-3.933-0.008
				c-0.24,0-0.436,0.189-0.436,0.43l0.037,20.704c0,0.114,0.048,0.257,0.129,0.339c0.083,0.082,0.193,0.159,0.308,0.159
				c0,0,0,0,0.002,0l3.934-0.041c0.239,0,0.437-0.214,0.437-0.455l-0.04-20.707C235.55,30.152,235.504,30.04,235.423,29.958z"/>
			<path fill="#FFFFFF" d="M233.133,26.351h0.006c0.905,0,1.69-0.433,2.34-1.084c0.649-0.653,0.978-1.49,0.976-2.394
				c-0.001-0.904-0.331-1.715-0.985-2.365c-0.649-0.647-1.434-0.989-2.342-0.989c-0.902,0.002-1.689,0.328-2.338,0.979
				c-0.649,0.651-0.979,1.437-0.978,2.34c0.002,0.903,0.335,1.788,0.987,2.438C231.446,25.923,232.231,26.351,233.133,26.351z
				 M233.133,25.712L233.133,25.712L233.133,25.712L233.133,25.712z"/>
		</g>
		<g>
			<path fill="#FFFFFF" d="M235.423,29.958c-0.082-0.08-0.194-0.112-0.309-0.112h-0.002l-3.933-0.008
				c-0.24,0-0.436,0.189-0.436,0.43l0.037,20.704c0,0.114,0.048,0.257,0.129,0.339c0.083,0.082,0.193,0.159,0.308,0.159
				c0,0,0,0,0.002,0l3.934-0.041c0.239,0,0.437-0.214,0.437-0.455l-0.04-20.707C235.55,30.152,235.504,30.04,235.423,29.958z"/>
			<path fill="#FFFFFF" d="M233.133,26.351h0.006c0.905,0,1.69-0.433,2.34-1.084c0.649-0.653,0.978-1.49,0.976-2.394
				c-0.001-0.904-0.331-1.715-0.985-2.365c-0.649-0.647-1.434-0.989-2.342-0.989c-0.902,0.002-1.689,0.328-2.338,0.979
				c-0.649,0.651-0.979,1.437-0.978,2.34c0.002,0.903,0.335,1.788,0.987,2.438C231.446,25.923,232.231,26.351,233.133,26.351z
				 M233.133,25.712L233.133,25.712L233.133,25.712L233.133,25.712z"/>
		</g>
	</g>
	<path fill="#FFFFFF" d="M253.539,47.173c0-0.157-0.083-0.3-0.218-0.377c-0.137-0.078-0.303-0.078-0.438,0
		c-0.359,0.206-0.766,0.352-1.212,0.431c-0.469,0.083-0.927,0.127-1.377,0.127c-0.656,0-1.15-0.114-1.464-0.333
		c-0.328-0.229-0.565-0.525-0.726-0.902c-0.168-0.401-0.269-0.867-0.295-1.382c-0.028-0.559-0.046-1.13-0.046-1.704l-0.018-8.952
		l5.199-0.01c0.242,0,0.438-0.195,0.437-0.437l-0.007-3.408c0-0.115-0.044-0.197-0.126-0.28c-0.084-0.082-0.192-0.099-0.31-0.099
		l0,0l-5.202-0.02l-0.01-5.3c-0.001-0.241-0.195-0.361-0.438-0.361l0,0l-3.931-0.083c-0.116,0-0.228,0.004-0.309,0.085
		c-0.081,0.082-0.13,0.17-0.13,0.287l0.011,5.363l-4.107,0.001c-0.241,0-0.437,0.194-0.435,0.435l0.007,3.407
		c0,0.115,0.043,0.286,0.127,0.367s0.193,0.187,0.309,0.187c0.002,0,0.002,0,0.002,0l4.106-0.068l0.02,10.323
		c0.002,0.854,0.039,1.698,0.115,2.535c0.079,0.892,0.335,1.702,0.765,2.424c0.434,0.74,1.111,1.347,2.017,1.804
		c0.885,0.448,2.123,0.675,3.685,0.675h0.03c0.429,0,1.014-0.057,1.785-0.165c0.796-0.109,1.456-0.313,1.969-0.603
		c0.136-0.077,0.221-0.226,0.221-0.382L253.539,47.173z"/>
	<path fill="#FFFFFF" d="M277.497,29.989c-0.081-0.119-0.215-0.142-0.357-0.142h-0.003l-4.195-0.041
		c-0.183,0-0.347,0.092-0.41,0.264l-5.495,15.174L261.249,30.1c-0.065-0.169-0.228-0.254-0.409-0.254c0,0,0,0-0.003,0l-4.543-0.025
		c-0.146,0-0.281,0.058-0.362,0.177c-0.082,0.121-0.099,0.267-0.04,0.4l8.543,20.658l-1.207,3.114
		c-0.193,0.505-0.391,0.962-0.588,1.36c-0.181,0.366-0.408,0.688-0.676,0.959c-0.259,0.259-0.571,0.462-0.93,0.601
		c-0.37,0.141-0.835,0.213-1.396,0.213c-0.717,0-1.448-0.147-2.17-0.442c-0.125-0.052-0.269-0.042-0.385,0.025
		c-0.115,0.069-0.196,0.188-0.214,0.321l-0.472,3.583c-0.023,0.197,0.083,0.385,0.265,0.461c0.584,0.247,1.204,0.466,1.835,0.542
		c0.604,0.07,1.208,0.163,1.792,0.163h0.023c1.121,0,2.091-0.217,2.88-0.528c0.793-0.314,1.478-0.787,2.04-1.353
		c0.551-0.556,1.03-1.248,1.423-2.027c0.382-0.752,0.753-1.605,1.102-2.518l9.787-25.16
		C277.596,30.237,277.578,30.107,277.497,29.989z"/>
	<path fill="#B4B4B4" d="M76.573,19.988"/>
	<g>
		<g>
			<path fill="#FFFFFF" d="M34.187,72.969c-17.757,0-32.205-14.447-32.205-32.199c0-17.757,14.448-32.204,32.204-32.204
				c17.757,0,32.203,14.447,32.203,32.204C66.39,58.521,51.944,72.969,34.187,72.969z"/>
			<path fill="#EC7B62" d="M34.187,9.877c17.062,0,30.892,13.832,30.892,30.893c0,17.056-13.831,30.887-30.892,30.887
				c-17.062,0-30.894-13.832-30.894-30.888C3.293,23.709,17.124,9.877,34.187,9.877 M34.187,7.255c-8.953,0-17.37,3.487-23.7,9.817
				C4.157,23.402,0.67,31.818,0.67,40.77c0,8.947,3.487,17.363,9.816,23.696c6.331,6.329,14.748,9.814,23.7,9.814
				c8.952,0,17.369-3.485,23.698-9.814C64.215,58.133,67.7,49.717,67.7,40.77c0-8.952-3.486-17.368-9.816-23.698
				C51.555,10.742,43.139,7.255,34.187,7.255L34.187,7.255z"/>
		</g>
		<g>
			<polygon fill="#C03814" points="13.499,53.639 12.962,28.827 34.187,15.954 55.947,27.899 56.482,52.709 35.259,65.582 			"/>
			<polygon fill="#EB6A4D" points="34.723,39.771 55.947,27.899 34.187,15.954 12.962,28.827 			"/>
			<polygon fill="#E85836" points="34.723,39.771 35.259,65.582 13.499,53.639 12.962,28.827 			"/>
		</g>
	</g>
</g>
</svg>
