<?xml version="1.0" encoding="utf-8"?>
<!-- Generator: Adobe Illustrator 16.2.1, SVG Export Plug-In . SVG Version: 6.00 Build 0)  -->
<!DOCTYPE svg PUBLIC "-//W3C//DTD SVG 1.1//EN" "http://www.w3.org/Graphics/SVG/1.1/DTD/svg11.dtd">
<svg version="1.1" id="Layer_1" xmlns="http://www.w3.org/2000/svg" xmlns:xlink="http://www.w3.org/1999/xlink" x="0px" y="0px"
	 width="295px" height="75px" viewBox="0 0 295 75" enable-background="new 0 0 295 75" xml:space="preserve">
<g>
	<path fill="#FFFFFF" d="M97.39,39.522c-0.352-0.768-0.844-1.425-1.465-1.96c-0.611-0.524-1.341-0.955-2.173-1.279
		c-0.803-0.313-1.673-0.583-2.603-0.806c-0.464-0.093-1.021-0.199-1.671-0.323c-0.613-0.114-1.195-0.291-1.733-0.522
		c-0.518-0.222-0.971-0.518-1.347-0.879c-0.325-0.312-0.484-0.716-0.485-1.24c-0.001-0.638,0.27-1.092,0.854-1.429
		c0.649-0.375,1.436-0.566,2.352-0.567c0.955,0,1.77,0.188,2.418,0.558c0.671,0.385,1.243,0.869,1.701,1.437
		c0.157,0.196,0.441,0.23,0.641,0.079l3.236-2.459c0.191-0.144,0.24-0.41,0.114-0.613c-0.855-1.375-2.021-2.369-3.465-2.957
		c-1.402-0.57-2.887-0.859-4.436-0.859c-1.057,0.001-2.117,0.149-3.155,0.439c-1.051,0.292-2.001,0.738-2.827,1.323
		c-0.839,0.594-1.522,1.355-2.031,2.261c-0.514,0.916-0.774,1.998-0.771,3.215c0.002,1.121,0.208,2.079,0.613,2.852
		c0.402,0.768,0.947,1.412,1.618,1.913c0.654,0.487,1.414,0.883,2.259,1.173c0.816,0.281,1.688,0.533,2.609,0.752
		c0.455,0.091,0.987,0.205,1.585,0.341c0.571,0.132,1.122,0.308,1.635,0.527c0.48,0.203,0.897,0.487,1.239,0.842
		c0.304,0.313,0.451,0.711,0.452,1.207c0.001,0.365-0.099,0.676-0.301,0.95c-0.222,0.302-0.515,0.555-0.87,0.753
		c-0.373,0.208-0.811,0.363-1.301,0.463c-0.505,0.103-1.012,0.155-1.522,0.156c-1.103,0-2.044-0.239-2.795-0.71
		c-0.802-0.505-1.539-1.088-2.19-1.738c-0.169-0.169-0.438-0.18-0.623-0.029l-3.144,2.601c-0.188,0.153-0.224,0.432-0.08,0.628
		c1.13,1.545,2.438,2.708,3.888,3.291c1.415,0.568,3.074,0.943,4.934,0.943h0.033c1.111,0,2.228-0.218,3.323-0.475
		c1.113-0.26,2.122-0.73,2.998-1.315c0.884-0.594,1.615-1.39,2.173-2.328c0.563-0.949,0.849-2.108,0.846-3.42
		C97.921,41.235,97.742,40.29,97.39,39.522z"/>
	<path fill="#FFFFFF" d="M123.38,32.956c-0.547-1.454-1.337-2.743-2.347-3.829c-1.014-1.09-2.253-1.891-3.682-2.5
		c-1.42-0.603-3.023-0.848-4.763-0.848h-0.028c-1.542,0-3.064,0.288-4.521,0.964c-1.078,0.499-1.998,1.125-2.743,1.927l-0.004-1.957
		c0-0.256-0.208-0.471-0.463-0.471c0,0,0,0-0.001,0l-4.166,0.001c-0.257,0-0.464,0.205-0.463,0.461l0.064,35
		c0,0.122,0.049,0.333,0.136,0.423c0.087,0.086,0.205,0.229,0.328,0.229c0,0,0,0,0.001,0l4.167-0.104
		c0.255,0,0.461-0.256,0.461-0.513l-0.027-14.999c0.704,0.76,1.584,1.383,2.629,1.881c1.441,0.683,2.997,1.025,4.646,1.025
		c1.752-0.004,3.362-0.317,4.787-0.93c1.426-0.61,2.661-1.469,3.67-2.547c1.007-1.073,1.793-2.36,2.335-3.818
		c0.539-1.452,0.812-3.04,0.808-4.723C124.202,35.979,123.924,34.407,123.38,32.956z M111.892,30.014v0.462
		c1.157,0,2.072,0.181,2.903,0.536c0.833,0.358,1.59,0.85,2.162,1.46c0.572,0.614,1.047,1.37,1.366,2.248
		c0.321,0.887,0.497,1.871,0.499,2.921c0.003,1.051-0.152,2.034-0.47,2.921c-0.316,0.879-0.762,1.639-1.332,2.251
		c-0.569,0.615-1.278,1.11-2.109,1.469c-0.831,0.36-1.78,0.545-2.841,0.548c-1.036,0-1.982-0.181-2.811-0.537
		c-0.833-0.357-1.545-0.848-2.116-1.461c-0.573-0.612-1.024-1.37-1.342-2.246c-0.322-0.884-0.486-1.865-0.488-2.919
		c-0.001-1.054,0.159-2.036,0.476-2.923c0.315-0.877,0.765-1.636,1.336-2.251c0.568-0.614,1.278-1.108,2.11-1.469
		c0.833-0.36,1.69-0.544,2.732-0.546L111.892,30.014L111.892,30.014z"/>
	<path fill="#FFFFFF" d="M145.956,48.516c-0.062-0.576-0.108-1.191-0.14-1.826c-0.032-0.628-0.049-1.336-0.05-2.108l-0.021-11.202
		c0-1.011-0.193-1.995-0.571-2.927c-0.381-0.94-0.975-1.781-1.765-2.503c-0.785-0.717-1.799-1.212-3.012-1.63
		c-1.194-0.412-2.628-0.539-4.261-0.539H136.1c-1.586,0-3.195,0.206-4.781,0.763c-1.596,0.563-3.019,1.375-4.23,2.495
		c-0.093,0.085-0.146,0.183-0.149,0.307c-0.003,0.125,0.043,0.236,0.129,0.325l2.505,2.584c0.163,0.167,0.425,0.186,0.612,0.045
		c0.371-0.28,0.758-0.576,1.161-0.886c0.373-0.287,0.795-0.544,1.256-0.76c0.462-0.219,0.987-0.406,1.562-0.554
		c0.561-0.144,1.23-0.218,2.006-0.22c0.824,0,1.539,0.12,2.127,0.355c0.584,0.236,1.077,0.556,1.463,0.954
		c0.388,0.401,0.683,0.855,0.876,1.349c0.195,0.501,0.295,1.006,0.295,1.5l0.001,0.462l-2.592,0.005
		c-1.685,0.003-3.294,0.141-4.781,0.41c-1.509,0.272-2.849,0.728-3.982,1.353c-1.155,0.639-2.082,1.476-2.752,2.492
		c-0.679,1.031-1.021,2.315-1.019,3.821c0.003,1.148,0.222,2.175,0.654,3.05s1.028,1.62,1.775,2.216
		c0.739,0.589,1.61,1.045,2.59,1.337c0.959,0.285,1.978,0.439,3.03,0.439c0,0,0.021,0,0.021,0c1.725,0,3.271-0.326,4.591-0.939
		c1.015-0.475,1.932-1.209,2.738-2.182c0.023,0.706,0.065,1.474,0.125,2.174c0.021,0.239,0.221,0.485,0.462,0.485h0l3.704-0.07
		c0.13-0.001,0.257-0.088,0.344-0.186C145.927,48.808,145.969,48.646,145.956,48.516z M131.574,40.439
		c0.488-0.503,1.128-0.901,1.907-1.186c0.809-0.296,1.723-0.501,2.714-0.605c1.017-0.107,2.02-0.163,2.984-0.164l1.76-0.003
		l0.001,0.926c0.001,0.69-0.1,1.403-0.302,2.115c-0.196,0.694-0.525,1.333-0.978,1.901c-0.447,0.561-1.046,1.023-1.782,1.381
		c-0.734,0.354-1.647,0.536-2.734,0.538c-1.343,0-2.413-0.254-3.179-0.752c-0.716-0.469-1.065-1.233-1.067-2.344
		C130.896,41.502,131.119,40.91,131.574,40.439z M133.855,49.141L133.855,49.141L133.855,49.141L133.855,49.141z"/>
	<path fill="#FFFFFF" d="M165.958,42.414c-0.088-0.092-0.212-0.144-0.341-0.136c-0.128,0.006-0.246,0.061-0.332,0.159
		c-0.666,0.754-1.396,1.334-2.172,1.724c-0.764,0.384-1.707,0.578-2.818,0.58c-1.004,0-1.916-0.179-2.711-0.534
		c-0.803-0.355-1.499-0.854-2.071-1.481c-0.576-0.629-1.029-1.381-1.348-2.232c-0.32-0.85-0.484-1.77-0.486-2.729
		c-0.001-0.969,0.137-1.911,0.414-2.803c0.273-0.883,0.683-1.675,1.214-2.353c0.525-0.67,1.187-1.203,1.968-1.588
		c0.78-0.385,1.714-0.581,2.795-0.583c1.089,0,2.035,0.192,2.813,0.572c0.796,0.389,1.572,0.972,2.305,1.73
		c0.176,0.181,0.46,0.189,0.646,0.021l3.143-2.877c0.094-0.083,0.147-0.198,0.151-0.323c0.006-0.123-0.04-0.243-0.123-0.333
		c-1.125-1.217-2.47-2.055-3.996-2.648c-1.508-0.583-3.106-0.8-4.752-0.8h-0.026c-1.779,0-3.418,0.228-4.869,0.821
		c-1.458,0.596-2.722,1.396-3.764,2.456c-1.039,1.06-1.858,2.324-2.435,3.799c-0.569,1.468-0.858,3.089-0.855,4.837
		c0.004,1.745,0.298,3.361,0.875,4.813c0.579,1.458,1.414,2.724,2.477,3.764c1.058,1.042,2.337,1.893,3.793,2.465
		c1.443,0.567,3.058,0.888,4.794,0.888h0.028c1.651,0,3.241-0.312,4.72-0.856c1.498-0.549,2.828-1.484,3.953-2.741
		c0.166-0.185,0.155-0.472-0.019-0.646L165.958,42.414z"/>
	<path fill="#FFFFFF" d="M192.404,37.558c-0.002-1.453-0.205-2.904-0.604-4.314c-0.404-1.425-1.064-2.725-1.965-3.862
		c-0.905-1.142-2.071-2.074-3.468-2.778c-1.397-0.703-3.119-1.054-5.111-1.054h-0.03c-1.693,0-3.278,0.31-4.719,0.919
		c-1.439,0.612-2.695,1.465-3.737,2.541c-1.037,1.075-1.86,2.356-2.45,3.81c-0.588,1.453-0.885,3.047-0.881,4.735
		c0.003,1.686,0.281,3.272,0.825,4.719c0.544,1.455,1.335,2.735,2.349,3.809c1.014,1.075,2.27,1.979,3.728,2.585
		c1.451,0.602,3.081,0.957,4.853,0.957h0.029c4.299,0,7.689-1.636,10.081-4.738c0.073-0.099,0.106-0.249,0.093-0.371
		c-0.017-0.122-0.082-0.246-0.18-0.32l-3.152-2.409c-0.199-0.15-0.484-0.119-0.641,0.074c-0.764,0.946-1.615,1.715-2.522,2.287
		c-0.878,0.555-1.932,0.836-3.147,0.838c-0.897,0-1.774-0.146-2.612-0.434c-0.841-0.285-1.586-0.695-2.224-1.213
		c-0.626-0.511-1.144-1.139-1.529-1.869c-0.312-0.588-0.5-1.237-0.557-1.934l17.114-0.033c0.254,0,0.461-0.208,0.461-0.462
		L192.404,37.558z M181.112,29.337V29.8c0.927,0,1.858,0.15,2.582,0.446c0.721,0.295,1.339,0.707,1.817,1.224
		c0.481,0.521,0.852,1.144,1.094,1.849c0.201,0.591,0.335,1.24,0.392,1.934l-12.17,0.023c0.053-0.527,0.194-1.063,0.423-1.601
		c0.3-0.703,0.729-1.352,1.272-1.926c0.54-0.572,1.217-1.045,2.008-1.406c0.782-0.358,1.639-0.541,2.586-0.542L181.112,29.337
		L181.112,29.337z"/>
	<path fill="#FFFFFF" d="M209.256,12.775c-0.612-0.16-1.197-0.186-1.733-0.219c-0.511-0.029-1.002,0.027-1.455,0.027h-0.032
		c-2.885,0-4.96,0.722-6.171,2.27c-1.185,1.514-1.782,3.781-1.776,6.806l0.008,4.428l-4.26-0.001c-0.255,0-0.463,0.204-0.463,0.459
		l0.009,3.61c0,0.123,0.05,0.252,0.136,0.34c0.086,0.086,0.202,0.147,0.326,0.147l0,0l4.262-0.021l0.034,17.973
		c0,0.256,0.206,0.567,0.46,0.567h0.002l4.165-0.12c0.126,0,0.242-0.104,0.328-0.19c0.09-0.087,0.136-0.231,0.136-0.355
		l-0.032-17.883l4.538-0.017c0.255,0,0.462-0.21,0.462-0.467l-0.006-3.613c0-0.124-0.052-0.146-0.138-0.233
		c-0.086-0.086-0.204-0.04-0.326-0.04l0,0l-4.493-0.087l-0.007-4.632c-0.002-0.75,0.034-1.448,0.107-2.027
		c0.067-0.533,0.215-1.006,0.444-1.382c0.216-0.36,0.512-0.635,0.897-0.83c0.396-0.198,0.949-0.302,1.661-0.303
		c0.397,0,0.771,0.027,1.112,0.083c0.339,0.056,0.697,0.156,1.067,0.297c0.134,0.051,0.281,0.037,0.402-0.037
		c0.124-0.072,0.204-0.198,0.222-0.339l0.457-3.706C209.626,13.049,209.48,12.833,209.256,12.775z"/>
	<g>
		<g>
			<path fill="#FFFFFF" d="M214.63,22.307c0,0,0.006,0,0.008,0c0.956,0,1.79-0.43,2.478-1.12c0.688-0.689,1.036-1.563,1.034-2.521
				c0-0.958-0.352-1.811-1.044-2.498c-0.688-0.687-1.521-1.044-2.482-1.044c-0.956,0.002-1.788,0.348-2.478,1.039
				c-0.688,0.689-1.036,1.523-1.034,2.48c0.002,0.958,0.354,1.866,1.043,2.555C212.843,21.884,213.677,22.307,214.63,22.307z
				 M214.63,21.69L214.63,21.69L214.63,21.69L214.63,21.69z"/>
			<path fill="#FFFFFF" d="M217.056,26.276c-0.088-0.087-0.206-0.033-0.328-0.033l0,0l-4.165-0.094
				c-0.258,0-0.466,0.156-0.463,0.412l0.038,21.92c0,0.123,0.052,0.232,0.139,0.319c0.086,0.087,0.204,0.129,0.326,0.129l0,0
				l4.167-0.015c0.256,0,0.463-0.211,0.463-0.467l-0.041-21.896C217.189,26.431,217.142,26.362,217.056,26.276z"/>
		</g>
		<g>
			<path fill="#FFFFFF" d="M214.63,22.307c0,0,0.006,0,0.008,0c0.956,0,1.79-0.43,2.478-1.12c0.688-0.689,1.036-1.563,1.034-2.521
				c0-0.958-0.352-1.811-1.044-2.498c-0.688-0.687-1.521-1.044-2.482-1.044c-0.956,0.002-1.788,0.348-2.478,1.039
				c-0.688,0.689-1.036,1.523-1.034,2.48c0.002,0.958,0.354,1.866,1.043,2.555C212.843,21.884,213.677,22.307,214.63,22.307z
				 M214.63,21.69L214.63,21.69L214.63,21.69L214.63,21.69z"/>
			<path fill="#FFFFFF" d="M217.056,26.276c-0.088-0.087-0.206-0.033-0.328-0.033l0,0l-4.165-0.094
				c-0.258,0-0.466,0.156-0.463,0.412l0.038,21.92c0,0.123,0.052,0.232,0.139,0.319c0.086,0.087,0.204,0.129,0.326,0.129l0,0
				l4.167-0.015c0.256,0,0.463-0.211,0.463-0.467l-0.041-21.896C217.189,26.431,217.142,26.362,217.056,26.276z"/>
		</g>
	</g>
	<path fill="#FFFFFF" d="M241.117,34.283c-0.002-1.504-0.235-2.832-0.689-3.947c-0.458-1.121-1.082-2.055-1.854-2.777
		c-0.774-0.72-1.688-1.259-2.719-1.601c-1.012-0.334-2.075-0.503-3.181-0.503c-1.769,0.004-3.354,0.392-4.716,1.155
		c-0.869,0.49-1.583,1.082-2.134,1.77l-0.002-1.894c0-0.123-0.048-0.129-0.135-0.217c-0.087-0.086-0.205-0.024-0.329-0.024l0,0
		l-4.167-0.102c-0.257,0-0.463,0.152-0.463,0.409l0.041,21.917c0,0.122,0.047,0.239,0.134,0.327c0.091,0.086,0.208,0.135,0.33,0.135
		l0,0l4.167-0.022c0.256-0.001,0.464-0.214,0.462-0.47l-0.021-11.299c-0.002-1.21,0.146-2.268,0.433-3.144
		c0.284-0.858,0.688-1.576,1.196-2.127c0.501-0.546,1.094-0.953,1.762-1.204c0.688-0.258,1.44-0.39,2.256-0.392
		c0.591,0,1.172,0.092,1.72,0.275c0.532,0.176,1.013,0.466,1.423,0.863c0.413,0.398,0.751,0.933,1.006,1.591
		c0.256,0.668,0.388,1.492,0.39,2.45l0.022,12.962c0,0.122,0.05,0.267,0.138,0.354c0.086,0.087,0.204,0.164,0.326,0.164l0,0
		l4.168-0.037c0.255,0,0.463-0.221,0.463-0.477L241.117,34.283z"/>
	<g>
		<g>
			<path fill="#FFFFFF" d="M249.431,26.13c-0.086-0.085-0.204-0.119-0.326-0.119h-0.002l-4.167-0.009
				c-0.255,0-0.462,0.2-0.462,0.456l0.04,21.942c0,0.121,0.05,0.272,0.136,0.359c0.089,0.086,0.206,0.169,0.326,0.169
				c0,0,0,0,0.002,0l4.169-0.043c0.254,0,0.462-0.228,0.462-0.482l-0.042-21.946C249.566,26.335,249.518,26.217,249.431,26.13z"/>
			<path fill="#FFFFFF" d="M247.006,22.307h0.006c0.958,0,1.791-0.459,2.479-1.149c0.688-0.691,1.036-1.579,1.034-2.536
				c-0.002-0.958-0.351-1.818-1.044-2.506c-0.688-0.686-1.519-1.048-2.482-1.048c-0.956,0.002-1.79,0.347-2.478,1.037
				c-0.687,0.69-1.036,1.522-1.034,2.479c0.002,0.957,0.354,1.895,1.045,2.583C245.218,21.854,246.05,22.307,247.006,22.307z
				 M247.006,21.631L247.006,21.631L247.006,21.631L247.006,21.631z"/>
		</g>
		<g>
			<path fill="#FFFFFF" d="M249.431,26.13c-0.086-0.085-0.204-0.119-0.326-0.119h-0.002l-4.167-0.009
				c-0.255,0-0.462,0.2-0.462,0.456l0.04,21.942c0,0.121,0.05,0.272,0.136,0.359c0.089,0.086,0.206,0.169,0.326,0.169
				c0,0,0,0,0.002,0l4.169-0.043c0.254,0,0.462-0.228,0.462-0.482l-0.042-21.946C249.566,26.335,249.518,26.217,249.431,26.13z"/>
			<path fill="#FFFFFF" d="M247.006,22.307h0.006c0.958,0,1.791-0.459,2.479-1.149c0.688-0.691,1.036-1.579,1.034-2.536
				c-0.002-0.958-0.351-1.818-1.044-2.506c-0.688-0.686-1.519-1.048-2.482-1.048c-0.956,0.002-1.79,0.347-2.478,1.037
				c-0.687,0.69-1.036,1.522-1.034,2.479c0.002,0.957,0.354,1.895,1.045,2.583C245.218,21.854,246.05,22.307,247.006,22.307z
				 M247.006,21.631L247.006,21.631L247.006,21.631L247.006,21.631z"/>
		</g>
	</g>
	<path fill="#FFFFFF" d="M268.63,44.374c0-0.166-0.088-0.317-0.232-0.4c-0.144-0.081-0.32-0.081-0.462,0
		c-0.382,0.22-0.812,0.374-1.286,0.458c-0.495,0.088-0.981,0.134-1.458,0.134c-0.696,0-1.219-0.12-1.552-0.353
		c-0.347-0.243-0.599-0.557-0.768-0.956c-0.179-0.426-0.285-0.919-0.314-1.464c-0.028-0.593-0.047-1.198-0.047-1.806l-0.019-9.489
		l5.509-0.011c0.257,0,0.465-0.207,0.463-0.463l-0.007-3.612c0-0.122-0.047-0.209-0.134-0.297c-0.088-0.086-0.204-0.104-0.328-0.104
		l0,0l-5.512-0.021l-0.01-5.616c-0.002-0.256-0.207-0.383-0.465-0.383l0,0l-4.166-0.088c-0.123,0-0.24,0.004-0.326,0.09
		c-0.086,0.087-0.138,0.181-0.138,0.304l0.01,5.683l-4.352,0.002c-0.255,0-0.462,0.205-0.46,0.461l0.007,3.61
		c0,0.122,0.046,0.303,0.135,0.389s0.205,0.198,0.327,0.198c0.002,0,0.002,0,0.002,0l4.352-0.072l0.02,10.941
		c0.002,0.906,0.042,1.8,0.122,2.686c0.084,0.945,0.355,1.804,0.811,2.569c0.459,0.784,1.177,1.428,2.136,1.912
		c0.938,0.474,2.25,0.714,3.905,0.714h0.032c0.454,0,1.074-0.06,1.892-0.174c0.843-0.117,1.543-0.333,2.085-0.639
		c0.145-0.082,0.234-0.239,0.234-0.405L268.63,44.374z"/>
	<path fill="#FFFFFF" d="M294.018,26.162c-0.086-0.126-0.228-0.15-0.38-0.15h-0.002l-4.446-0.043c-0.194,0-0.367,0.097-0.435,0.279
		l-5.824,16.083L276.8,26.28c-0.07-0.18-0.242-0.269-0.434-0.269c0,0,0,0-0.002,0l-4.815-0.027c-0.154,0-0.298,0.061-0.384,0.188
		c-0.087,0.128-0.104,0.282-0.043,0.424l9.053,21.893l-1.278,3.3c-0.205,0.535-0.415,1.019-0.623,1.441
		c-0.192,0.389-0.433,0.729-0.717,1.017c-0.274,0.275-0.606,0.489-0.984,0.636c-0.393,0.149-0.886,0.226-1.48,0.227
		c-0.76,0-1.534-0.158-2.299-0.469c-0.133-0.056-0.285-0.045-0.408,0.026c-0.123,0.073-0.208,0.198-0.227,0.341l-0.5,3.797
		c-0.024,0.208,0.088,0.407,0.28,0.488c0.62,0.262,1.277,0.493,1.946,0.574c0.641,0.075,1.279,0.173,1.898,0.173h0.026
		c1.187,0,2.214-0.229,3.051-0.559c0.84-0.334,1.566-0.834,2.162-1.434c0.584-0.589,1.092-1.323,1.508-2.149
		c0.404-0.797,0.797-1.701,1.167-2.667l10.372-26.664C294.122,26.426,294.104,26.288,294.018,26.162z"/>
	<path fill="#B4B4B4" d="M81.103,15.565"/>
	<g>
		<g>
			<path fill="#FFFFFF" d="M36.187,71.71C17.37,71.71,2.06,56.401,2.06,37.587c0-18.817,15.31-34.126,34.126-34.126
				c18.817,0,34.125,15.309,34.125,34.126C70.312,56.401,55.004,71.71,36.187,71.71z"/>
			<path fill="#EC7B62" d="M36.187,4.851c18.08,0,32.736,14.657,32.736,32.737c0,18.076-14.656,32.732-32.736,32.732
				S3.45,55.662,3.45,37.587C3.45,19.508,18.106,4.851,36.187,4.851 M36.187,2.072c-9.487,0-18.406,3.695-25.114,10.403
				C4.365,19.182,0.67,28.101,0.67,37.587c0,9.484,3.695,18.401,10.402,25.112c6.708,6.707,15.627,10.401,25.114,10.401
				c9.486,0,18.406-3.694,25.113-10.401c6.708-6.711,10.401-15.628,10.401-25.112c0-9.487-3.694-18.405-10.401-25.113
				C54.592,5.767,45.673,2.072,36.187,2.072L36.187,2.072z"/>
		</g>
		<g>
			<polygon fill="#C03814" points="14.264,51.226 13.696,24.931 36.187,11.29 59.246,23.948 59.813,50.241 37.323,63.882 			"/>
			<polygon fill="#EB6A4D" points="36.755,36.529 59.246,23.948 36.187,11.29 13.696,24.931 			"/>
			<polygon fill="#E85836" points="36.755,36.529 37.323,63.882 14.264,51.226 13.696,24.931 			"/>
		</g>
	</g>
</g>
</svg>
