<?xml version="1.0" encoding="utf-8"?>
<!-- Generator: Adobe Illustrator 16.2.1, SVG Export Plug-In . SVG Version: 6.00 Build 0)  -->
<!DOCTYPE svg PUBLIC "-//W3C//DTD SVG 1.1//EN" "http://www.w3.org/Graphics/SVG/1.1/DTD/svg11.dtd">
<svg version="1.1" id="Layer_1" xmlns="http://www.w3.org/2000/svg" xmlns:xlink="http://www.w3.org/1999/xlink" x="0px" y="0px"
	 width="1021.818px" height="698.388px" viewBox="0 0 1021.818 698.388" enable-background="new 0 0 1021.818 698.388"
	 xml:space="preserve">
<g>
	<path fill="#F6DDA5" d="M719.5,250.493c-224.791,28.178-289.563-89.927-289.563-89.927C429.937,71.888,494.757,0,574.72,0
		C654.68,0,719.5,71.888,719.5,160.566v88.672"/>
	<circle fill="#474847" cx="630.833" cy="131.163" r="16.873"/>
	<circle fill="#474847" cx="515.444" cy="131.163" r="16.873"/>
	<rect x="396.788" y="205.014" fill="#AFDEE2" width="359.231" height="356.621"/>
	<path fill="#AFDEE2" d="M738.756,487.747l125.73,30.582l-62.865,108.212l26.942,14.697c0,0,107.769,6.53,84.909,57.149H764.881
		l-17.962-60.416l9.798-80.011l-135.445-39.632"/>
	<path fill="#AFDEE2" d="M414.831,487.747L289.1,518.329l62.865,108.212l-26.942,14.697c0,0-107.77,6.53-84.909,57.149h148.592
		l17.961-60.416l-9.797-80.011l135.446-39.632"/>
	<rect x="396.736" y="233.77" fill="#E15726" width="359.231" height="256.609"/>
	<path fill="#F1B25F" d="M1019.764,218.51l-2.886-30.698l-36.929,23.365l-649.531-25.519c0,0-327.031-170.711-330.418,4.469
		L1019.764,218.51z"/>
	<path fill="#FFCC67" d="M1018.294,201.346l3.524,39.594l-40.686-19.503l-649.95-10.599c0,0-336.002,152.284-329.654-22.809
		L1018.294,201.346z"/>
	<polygon fill="#FCCB98" points="226.156,385.036 226.486,419.757 856.738,211.437 855.105,38.785 798.94,28.28 809.806,186.742 	
		"/>
	<polygon opacity="0.3" fill="#CB9866" points="829.672,34.029 798.94,28.28 809.806,186.742 251.417,376.453 249.686,391.945 
		837.062,196.069 	"/>
	<polyline fill="#EE3A39" points="801.514,70.245 855.6,91.035 856.135,147.638 806.486,138.345 801.514,70.245 	"/>
	<path fill="#333333" d="M227.126,432.833c5.44-6.109,6.521-15.014,6.521-15.014l25.018-8.27l0.625-35.369l-25.015,7.333
		c0,0,0.93-6.517-5.811-17.962l-6.387,0.722l-0.311,69.565L227.126,432.833z"/>
	<polyline opacity="0.4" fill="#F69668" points="598.385,264.303 579.328,269.368 575.584,297.384 600.149,291.077 598.385,264.303 
			"/>
	<polyline opacity="0.4" fill="#F69668" points="636.772,253.081 617.717,258.147 613.97,286.162 638.536,279.857 636.772,253.081 	
		"/>
	<polyline opacity="0.4" fill="#F69668" points="560.107,276.208 541.05,281.275 537.308,309.288 561.871,302.984 560.107,276.208 	
		"/>
	<path opacity="0.3" d="M722.393,241.979c-31.454-16.18-66.106-19.583-98.048-12.123c-9.619-14.474-22.705-26.578-38.883-34.898
		c-54.812-28.191-124.323-2.293-155.263,57.84c-30.934,60.146-11.578,131.757,43.233,159.949c3.232,1.662,6.517,3.13,9.84,4.421
		c1.842,0.812,3.975,1.604,6.442,2.372c21.244,6.611,35.317,15.664,44.501,23.947c13.26,21.994,32.588,40.7,57.103,53.311
		c70.366,36.196,156.753,8.493,192.949-61.872C820.461,364.56,792.761,278.175,722.393,241.979z"/>
	<path fill="#FDD6B2" d="M475.065,403.553c54.812,28.194,124.325,2.296,155.261-57.848c30.936-60.141,11.581-131.752-43.232-159.938
		c-54.811-28.194-124.322-2.296-155.262,57.838C400.898,303.749,420.255,375.36,475.065,403.553z"/>
	<circle fill="#FDD6B2" cx="658.489" cy="360.194" r="143.278"/>
	<path fill="#FCF8CD" d="M678.436,218.182c0,0-29.874,9.185-72.152-22.851c-42.278-32.037-12.846,53.525-12.846,53.525l83.93,36.743
		l33.959-32.107L678.436,218.182z"/>
	<path fill="#FDD6B2" d="M551.901,455.754c0,0-9.902-29.646-60.554-45.409c-50.65-15.764,36.078-41.579,36.078-41.579l78.7,46.909
		l-6.374,46.301L551.901,455.754z"/>
	<path fill="#EEA867" d="M490.442,385.648c54.812,28.194,124.326,2.295,155.263-57.848c30.936-60.143,11.58-131.751-43.23-159.941
		c-54.812-28.195-124.325-2.296-155.263,57.841C416.277,285.84,435.631,357.454,490.442,385.648z"/>
	<path fill="#EEA867" d="M608.328,469.698c70.368,36.194,156.754,8.496,192.95-61.871c36.194-70.369,8.493-156.753-61.874-192.948
		c-70.367-36.188-156.751-8.494-192.944,61.872C510.264,347.116,537.963,433.504,608.328,469.698z"/>
	<path fill="#DE9C66" d="M444.639,227.853c-30.936,60.142-11.58,131.755,43.231,159.947c54.813,28.195,124.326,2.296,155.262-57.846
		"/>
	<path fill="#DE9C66" d="M543.884,278.902c-36.193,70.367-8.493,156.753,61.87,192.947c70.37,36.195,156.756,8.496,192.95-61.871"/>
	<path fill="#EEA867" d="M687.959,199.671c0,0-29.873,9.182-72.153-22.85c-42.279-32.038-12.845,53.523-12.845,53.523l83.927,36.743
		l33.962-32.11L687.959,199.671z"/>
	<path fill="#DE9C66" d="M567.28,437.848c0,0-9.903-29.646-60.554-45.408c-50.649-15.763,36.078-41.578,36.078-41.578l78.7,46.907
		l-6.375,46.303L567.28,437.848z"/>
	
		<ellipse transform="matrix(-0.7705 -0.6375 0.6375 -0.7705 838.0554 864.8096)" fill="#B6865C" cx="574.719" cy="281.53" rx="53.55" ry="53.476"/>
	<polygon fill="#EEA867" points="240.516,55.883 219.127,91.11 181.958,85.887 166.764,73.316 190.56,25.343 208.986,26.125 	"/>
	<polygon fill="#CCCBCB" points="683.249,309.218 225.864,49.193 213.438,79.579 662.738,351.392 	"/>
	<polygon opacity="0.5" fill="#FFFFFF" points="667.178,327.869 214.873,68.618 210.785,69.57 664.758,331.646 	"/>
	<polygon opacity="0.5" fill="#FFFFFF" points="665.099,336.319 212.795,77.069 208.707,78.022 662.682,340.097 	"/>
	<polygon opacity="0.5" fill="#FFFFFF" points="671.203,320.012 218.898,60.761 214.812,61.713 668.784,323.786 	"/>
	<polygon opacity="0.5" fill="#FFFFFF" points="677.288,312.159 224.982,52.908 220.897,53.863 674.871,315.938 	"/>
	<polygon fill="#D39868" points="700.854,315.403 669.497,362.238 644.672,360.251 690.562,295.178 	"/>
	<polygon fill="#CCCBCB" points="187.651,82.65 182.912,102.04 177.509,101.738 184.296,79.874 	"/>
	<polygon fill="#CCCBCB" points="179.151,75.618 174.412,95.008 169.009,94.707 175.797,72.842 	"/>
	<polygon fill="#CCCBCB" points="201.23,30.152 208.83,11.693 204.287,8.752 196.884,30.416 	"/>
	<polygon fill="#CCCBCB" points="211.618,35.302 219.216,16.845 214.674,13.904 207.271,35.567 	"/>
	<polyline opacity="0.2" fill="#020202" points="396.788,216.341 326.575,298.979 384.622,403.281 628.24,398.178 628.24,322.169 
		417.099,319.759 396.788,259.313 396.788,213.977 	"/>
	<polygon opacity="0.2" fill="#020202" points="798.704,270.533 817.177,328.277 817.177,337.877 691.945,334.939 691.793,270.533 	
		"/>
	<polyline fill="#F5DCA4" points="396.788,210.109 326.575,292.748 384.622,397.05 628.24,391.945 628.24,315.938 417.099,313.527 
		396.788,253.081 396.788,207.745 	"/>
	<polygon fill="#F5DCA4" points="798.704,264.303 817.177,322.046 817.177,331.646 691.945,328.708 691.793,264.303 	"/>
	<path fill-rule="evenodd" clip-rule="evenodd" fill="#EE4756" d="M439.04,362.037c0,0,33.435,23.814,67.125,22.649
		c33.688-1.164,11.831-29.149,11.831-29.149l-39.108-41.003L439.04,362.037z"/>
	<path fill-rule="evenodd" clip-rule="evenodd" fill="#6CC396" d="M479.49,318.5c-35.349,34.023-87.215,37.48-115.852,7.73
		c-28.635-29.754-23.199-81.45,12.148-115.474c35.347-34.015,87.216-37.475,115.853-7.73
		C520.273,232.777,514.836,284.478,479.49,318.5z"/>
	<path fill-rule="evenodd" clip-rule="evenodd" fill="#EE4756" d="M523.104,275.909c0,0,25.175,38.363,22.438,75.945
		c-2.739,37.574-33.07,11.966-33.07,11.966l-44.128-45.432L523.104,275.909z"/>
	<path fill-rule="evenodd" clip-rule="evenodd" fill="#B5D3EE" d="M482.728,315.281c0,0,21.069,13.524,10.955,23.263
		c-10.116,9.734-23.224,22.633-46.875,30.761c-23.649,8.127-26.431-21.172-26.431-21.172L482.728,315.281z"/>
	<path fill-rule="evenodd" clip-rule="evenodd" fill="#B5D3EE" d="M468.312,329.157c0,0,12.173,22.088,23.587,11.103
		c11.416-10.99,26.511-25.236,37.636-50.582c11.123-25.345-19.744-27.609-19.744-27.609L468.312,329.157z"/>
	<path fill-rule="evenodd" clip-rule="evenodd" fill="#EE4756" d="M390.982,147.198c0,0-31.041-21.602-60.646-30.755
		c-29.605-9.152-66.406-37.821-68.99-51.843c-2.582-14.021-8.116,1.325-8.116,1.325c-4.009,7.442-5.312,20.062-2.481,28.04
		c0,0,0.768,10.221,32.799,68.864c32.033,58.638,28.308,60.526,28.308,60.526L390.982,147.198z"/>
	<path fill-rule="evenodd" clip-rule="evenodd" fill="#8ACEB6" d="M492.786,332.312c-29.243,28.146-78.942,23.959-111.007-9.354
		c-32.062-33.311-34.351-83.133-5.105-111.28c29.243-28.141,78.942-23.954,111.005,9.352
		C519.741,254.341,522.027,304.164,492.786,332.312z"/>
	<path fill-rule="evenodd" clip-rule="evenodd" fill="#FFFFFF" d="M428.968,266.011c-29.751,28.636-72.917,32.059-96.414,7.646
		c-23.498-24.412-18.427-67.416,11.324-96.045c29.753-28.637,72.919-32.061,96.417-7.649
		C463.79,194.373,458.721,237.371,428.968,266.011z"/>
	<path fill-rule="evenodd" clip-rule="evenodd" fill="#F5D1CD" d="M311.512,222.749c0,0-9.692,3.586-8.006,14.343
		c1.687,10.754,20.034,15.258,20.034,15.258l2.023-21.694L311.512,222.749z"/>
	<path fill-rule="evenodd" clip-rule="evenodd" fill="#F5D1CD" d="M390.215,146.861c0,0,3.955-9.549,14.639-7.455
		c10.682,2.096,14.482,20.601,14.482,20.601l-21.755,1.195L390.215,146.861z"/>
	<path fill-rule="evenodd" clip-rule="evenodd" fill="#F5D1CD" d="M419.229,207.972c-13.984,13.461-36.235,13.035-49.698-0.95
		c-13.462-13.98-13.036-36.23,0.948-49.691c13.986-13.463,36.237-13.037,49.699,0.95
		C433.641,172.265,433.215,194.515,419.229,207.972z"/>
	<path fill-rule="evenodd" clip-rule="evenodd" fill="#F5D1CD" d="M371.345,254.062c-13.985,13.461-36.236,13.035-49.698-0.951
		c-13.463-13.985-13.037-36.237,0.947-49.697c13.987-13.455,36.238-13.03,49.701,0.949
		C385.757,218.348,385.33,240.6,371.345,254.062z"/>
	<path fill-rule="evenodd" clip-rule="evenodd" fill="#F5D1CD" d="M396.577,147.704c0,0-17.734-4.157-51.853,28.682
		c-34.12,32.836-32.49,49.754-32.49,49.754l17.701,3.042l35.277-18.861L396.577,147.704z"/>
	
		<ellipse transform="matrix(0.6935 0.7205 -0.7205 0.6935 276.3833 -209.708)" fill-rule="evenodd" clip-rule="evenodd" fill="#E9C4BD" cx="384.651" cy="219.965" rx="11.503" ry="14.699"/>
	
		<ellipse transform="matrix(0.6934 0.7205 -0.7205 0.6934 421.0898 -283.044)" fill-rule="evenodd" clip-rule="evenodd" fill="#DAB08A" cx="543.157" cy="353.312" rx="12.106" ry="23.648"/>
	
		<ellipse transform="matrix(0.6935 0.7205 -0.7205 0.6935 433.2204 -249.1249)" fill-rule="evenodd" clip-rule="evenodd" fill="#DAB08A" cx="509.403" cy="384.596" rx="11.698" ry="23.643"/>
	<path fill-rule="evenodd" clip-rule="evenodd" fill="#FFFFFF" d="M388.729,153.391c3.9-1.646,8.404,0.188,10.05,4.08
		c1.649,3.901-0.181,8.401-4.079,10.049l-23.548,9.951c-3.902,1.646-8.404-0.187-10.05-4.081c-1.646-3.902,0.18-8.399,4.08-10.048
		L388.729,153.391z"/>
	<path fill-rule="evenodd" clip-rule="evenodd" fill="#FFFFFF" d="M319.327,219.229c-1.796,3.835-0.136,8.405,3.691,10.198
		c3.835,1.796,8.4,0.142,10.197-3.694l10.842-23.147c1.796-3.833,0.136-8.402-3.692-10.192c-3.836-1.796-8.402-0.141-10.197,3.689
		L319.327,219.229z"/>
	<circle fill-rule="evenodd" clip-rule="evenodd" fill="#6F6C6D" cx="385.887" cy="178.867" r="7.03"/>
	<circle fill-rule="evenodd" clip-rule="evenodd" fill="#6F6C6D" cx="346.291" cy="216.972" r="7.03"/>
	<path fill="none" stroke="#969595" stroke-width="1.6329" stroke-miterlimit="10" d="M432.572,172.095"/>
	<path fill-rule="evenodd" clip-rule="evenodd" fill="#6F6C6D" d="M411.669,248.956c-5.596,5.385-12.315,7.482-15.007,4.686
		c-2.691-2.799-0.338-9.431,5.257-14.815c5.593-5.384,12.311-7.482,15.004-4.687C419.613,236.937,417.262,243.572,411.669,248.956z"
		/>
	
		<rect x="397.863" y="215.889" transform="matrix(-0.6935 -0.7204 0.7204 -0.6935 514.6827 696.7308)" fill-rule="evenodd" clip-rule="evenodd" fill="#FFFFFF" width="15.338" height="46.014"/>
	<path fill="#9EC8EA" d="M313.512,231.337"/>
	<polygon fill="#9EC8EA" points="417.173,311.551 360.496,294.656 394.854,372.64 	"/>
	<polygon fill="#9EC8EA" points="339.261,289.943 360.496,294.656 390.215,322.046 382.119,346.464 346.97,318.204 339.261,297.384 
			"/>
	<polygon fill="#E15726" points="568.908,312.989 562.152,393.329 384.622,397.05 326.575,292.748 338.338,278.902 344.781,283.012 
		346.325,291.318 	"/>
	<polyline fill="#E15726" points="776.021,330.681 751.665,264.303 798.704,264.303 817.177,315.281 817.177,331.646 
		776.021,330.681 	"/>
	<polyline opacity="0.04" points="432.477,519.769 344.781,540.851 378.856,633.925 346.97,698.388 388.705,698.388 
		404.775,644.333 397.909,566.458 396.869,557.961 498.104,561.635 756.268,561.635 746.919,637.972 764.881,698.388 
		817.177,698.388 768.963,638.823 798.704,539.218 688.526,519.623 432.477,519.769 	"/>
	<polygon opacity="0.02" points="628.24,362.074 399.401,360.193 348.223,331.646 384.622,397.05 628.24,391.945 	"/>
	<polygon opacity="0.02" points="810.117,297.974 691.793,298.522 691.945,328.708 817.177,331.646 817.177,322.046 	"/>
</g>
</svg>
