<?xml version="1.0" encoding="utf-8"?>
<!-- Generator: Adobe Illustrator 16.2.1, SVG Export Plug-In . SVG Version: 6.00 Build 0)  -->
<!DOCTYPE svg PUBLIC "-//W3C//DTD SVG 1.1//EN" "http://www.w3.org/Graphics/SVG/1.1/DTD/svg11.dtd">
<svg version="1.1" id="Isolation_Mode" xmlns="http://www.w3.org/2000/svg" xmlns:xlink="http://www.w3.org/1999/xlink" x="0px"
	 y="0px" width="258px" height="350px" viewBox="0 0 258 350" enable-background="new 0 0 258 350" xml:space="preserve">
<g>
	<polyline fill="#989898" points="118.39,164.517 30.61,173.794 35.575,193.91 111.563,193.91 114.046,175.374 	"/>
	<path fill="#CCCBCB" d="M95.433,171.398c0,0-19.441,58.051-9.014,94.554c0,0-5.402,73.746-3.074,78.962h33.609
		c0,0,5.125-71.514,7.779-69.281c2.656,2.235,14.4,3.723,18.21,2.235c3.812-1.49,12.752,67.046,12.752,67.046h32.031l-3.723-81.945
		c0,0,8.844-47.568-3.027-91.571c0,0,69.34,4.417,47.738,62.52c0,0,15.715-5.006,16.236-21.408
		c0.527-16.652,11.871-50.821-31.334-60.845c0,0-9.248-3.034-30.605-4.712C161.654,145.272,95.433,171.398,95.433,171.398z"/>
	<path fill="#989898" d="M84.032,226.189h103.112c0,0-0.399,12.063-0.627,15.052c-0.227,2.983-103.169,0-103.169,0L84.032,226.189z"
		/>
	<rect x="158.532" y="191.089" fill="#C99977" width="39.036" height="46.931"/>
	<path fill="#989898" d="M249.542,213.955c0,8.253-15.651,20.425-25.545,20.425c-9.896,0-17.916-6.69-17.916-14.946
		c0,0,29.526-1.4,20.871-23.637c-8.654-22.231,14.959,22.221,14.959,22.221"/>
	<polygon fill="#D6A47B" points="197.568,189.881 243.968,151.935 243.968,194.035 197.568,238.02 	"/>
	<polygon fill="#E9B280" points="158.532,191.089 204.872,151.935 243.968,151.935 197.568,191.089 	"/>
	<path fill="#989898" d="M176.355,171.513c0,0,66.263,5.483,51.859,55.958l24.256-28.037c0,0,6.055-44.578-53.32-50.543
		C140.409,142.984,176.355,171.513,176.355,171.513z"/>
	<polygon fill="#DCA97F" points="158.532,191.089 176.271,215.123 197.568,191.089 	"/>
	<path fill="#989898" d="M247.555,219.711c0,0,14.944-22.803-1.285-46.57l-6.779,20.14l-4.967,32.056L247.555,219.711z"/>
	<polygon fill="#FFCC67" points="124.542,50.549 129.146,17.722 139.771,29.402 155.663,17.441 162.284,34.658 176.523,28.533 
		166.359,61.065 	"/>
	<circle opacity="0.2" fill="#0C0D0D" enable-background="new    " cx="132.323" cy="117.002" r="70.521"/>
	<path fill="#CCCBCB" d="M202.846,112.201c0,38.945-31.576,70.525-70.523,70.525c-38.945,0-70.521-31.581-70.521-70.525
		c0-38.948,31.574-70.522,70.521-70.522C171.27,41.679,202.846,73.253,202.846,112.201z"/>
	<path opacity="0.8" fill="#FFFFFF" enable-background="new    " d="M115.437,152.759c35.633-1.28,64.564-18.899,64.564-42.212
		c0-23.317-28.908-42.215-64.564-42.215c0,0-31.104-0.96-39.309,1.259c0,0-33.465,40.805-2.789,81.27
		C73.339,150.86,92.425,153.585,115.437,152.759z"/>
	<path fill="#F6DDA5" d="M88.288,152.298c68.366,8.571,88.067-27.351,88.067-27.351c0-26.971-19.713-48.834-44.035-48.834
		c-24.317,0-44.032,21.864-44.032,48.834v26.97"/>
	<path fill="#FFCC67" d="M88.288,151.917"/>
	<path fill="#FFCC67" d="M88.288,151.917"/>
	<circle fill="#474847" cx="108.152" cy="117.002" r="5.132"/>
	<circle fill="#474847" cx="143.25" cy="117.002" r="5.132"/>
	<path opacity="0.6" fill="#333333" enable-background="new    " d="M106.663,140.618c0,0,20.596,4.428,39.315,0H106.663z"/>
	<path fill="#C6C5C5" d="M19.755,174.181c-3.363,2.777-1.672,5.975,1.434,11.112c3.109,5.141,0.24,7.293,4.783,9.686
		c4.543,2.389,10.756-1.196,10.756-1.196l5.26-19.6C41.987,174.181,30.751,165.093,19.755,174.181z"/>
	<polygon fill="#E6E6E6" points="41.987,340.766 24.942,3.054 17.911,3.054 35.868,340.766 	"/>
	<circle fill="#FFCC67" cx="21.686" cy="21.685" r="20.966"/>
	<polygon fill="#F2F2F2" points="11.438,29.043 10.706,16.234 21.274,9.197 32.575,14.97 33.308,27.779 22.739,34.816 	"/>
	<path fill="#E25626" d="M155.695,344.914l-2.672-19.186h33.83l0.371,8.135c0,0,12.531-9.982,17.996,3.425
		c0,0,2.482,5.882-0.994,7.625C200.749,346.648,155.695,344.914,155.695,344.914z"/>
	<path fill="#E25626" d="M116.954,344.914l1.486-19.186H82.978l-0.066,8.135c0,0-13.211-9.982-18.971,3.425
		c0,0-2.617,5.882,1.047,7.625C68.653,346.648,116.954,344.914,116.954,344.914z"/>
	<circle fill="#E25626" cx="123.281" cy="232.992" r="14.974"/>
	<polyline fill="#B7B7B7" points="123.339,243.889 113.778,238.464 113.696,227.471 123.179,221.9 132.741,227.33 132.823,238.323 
		123.339,243.889 	"/>
	<polygon fill="#EDECED" points="123.265,232.455 132.741,227.33 123.179,221.9 113.696,227.471 	"/>
	<polyline fill="#D1D1CF" points="123.339,243.889 113.778,238.464 113.696,227.471 123.265,232.455 123.339,243.889 	"/>
	<path fill="#989898" d="M241.618,216.943c0,0-25.89-43.168-16.095-21.412c0,0,4.81,12.72-3.795,19.621
		C213.126,222.061,241.618,216.943,241.618,216.943z"/>
	<path fill="#C6C5C5" d="M40.089,174.04c-1.127,1.801-4.436,1.76-7.387-0.089c-2.949-1.854-4.424-4.814-3.295-6.617
		c1.131-1.8,4.439-1.76,7.389,0.089C39.747,169.277,41.222,172.238,40.089,174.04z"/>
	<ellipse fill="#C6C5C5" cx="30.61" cy="186.572" rx="6.307" ry="3.85"/>
	<ellipse fill="#C6C5C5" cx="30.816" cy="191.679" rx="6.306" ry="3.851"/>
	<path fill="#C6C5C5" d="M24.511,171.295c0,0,8.32-1.868,12.406,5.417c4.084,7.282-2.373,1.82-0.883,3.642
		c1.49,1.821-1.654,4.47-1.654,4.47l-2.979,2.7l-5.797-1.873l-1.301-8.611L24.511,171.295z"/>
	<polygon fill="#C6C5C5" points="41.987,174.181 39.159,169.501 36.917,170.687 39.454,175.363 	"/>
	<path fill="#C6C5C5" d="M223.038,213.955l0.959,20.425c0,0-8.74,0.763-15.188-7.014L223.038,213.955z"/>
	<polygon fill="#F7DDC4" points="82.978,325.729 83.231,319.076 118.995,319.076 118.44,325.729 	"/>
	<polygon fill="#F7DDC4" points="153.023,325.729 152.032,319.076 186.552,319.076 186.854,325.729 	"/>
	<path opacity="0.03" fill="#020202" enable-background="new    " d="M142.943,277.868c0,0,15.945-0.175,23.964-5.642l9.448,73.293
		l-20.66-0.605C155.695,344.914,146.714,277.284,142.943,277.868z"/>
	<path opacity="0.04" fill="#020202" enable-background="new    " d="M116.954,344.914c0,0,6.01-76.307,7.779-69.281
		c0,0-10.645-2.66-14.619-8.369L98.94,345.52L116.954,344.914z"/>
	<polygon opacity="0.02" enable-background="new    " points="135.682,17.692 138.118,32.038 148.382,15.707 139.771,22.188 	"/>
	<polygon opacity="0.02" enable-background="new    " points="159.266,27.27 162.284,35.125 170.363,31.649 157.79,43.948 	"/>
	<polygon opacity="0.1" fill="#CCCBCB" enable-background="new    " points="38.659,186.576 91.657,184.383 89.317,193.91 
		36.728,193.781 	"/>
	<path opacity="0.1" fill="#CCCBCB" enable-background="new    " d="M184.637,159.493c0,0,68.096,9.778,49.887,59.437
		c0,0-5.556,14.098-21.254,4.232l9.77-9.207c0,0,23.641-28.143-46.457-42.376l-2.801-2.327L184.637,159.493z"/>
</g>
</svg>
