<?xml version="1.0" encoding="utf-8"?>
<!-- Generator: Adobe Illustrator 16.2.1, SVG Export Plug-In . SVG Version: 6.00 Build 0)  -->
<!DOCTYPE svg PUBLIC "-//W3C//DTD SVG 1.1//EN" "http://www.w3.org/Graphics/SVG/1.1/DTD/svg11.dtd">
<svg version="1.1" id="Layer_1" xmlns="http://www.w3.org/2000/svg" xmlns:xlink="http://www.w3.org/1999/xlink" x="0px" y="0px"
	 width="42px" height="42px" viewBox="12 16.267 42 42" enable-background="new 12 16.267 42 42" xml:space="preserve">
<g>
	<g id="Facebook">
		<g>
			<path fill="#999999" d="M-117,58.267c-11.58,0-21-9.42-21-21s9.42-21,21-21s21,9.42,21,21S-105.42,58.267-117,58.267z
				 M-117,18.267c-10.477,0-19,8.523-19,19s8.523,19,19,19s19-8.523,19-19S-106.523,18.267-117,18.267z"/>
		</g>
		<g>
			<path fill="#999999" d="M-111.858,33.132h-3.714v-2.435c0-0.915,0.607-1.127,1.033-1.127c0.426,0,2.621,0,2.621,0v-4.021
				l-3.609-0.014c-4.006,0-4.917,2.999-4.917,4.917v2.68h-2.317v4.144h2.317c0,5.318,0,11.724,0,11.724h4.873c0,0,0-6.47,0-11.724
				h3.289L-111.858,33.132z"/>
		</g>
	</g>
	<g id="Twitter_1_">
		<g>
			<path fill="#999999" d="M-67,58.267c-11.58,0-21-9.42-21-21s9.42-21,21-21s21,9.42,21,21S-55.42,58.267-67,58.267z M-67,18.267
				c-10.477,0-19,8.523-19,19s8.523,19,19,19s19-8.523,19-19S-56.523,18.267-67,18.267z"/>
		</g>
		<g>
			<path fill="#999999" d="M-61.669,42.75h-4.23c-3.009,0-3.488-1.332-3.488-2.565c0-0.586,0.037-1.552,0.072-2.735h7.067
				c1.057,0,3.075-0.433,3.075-2.368c0-1.933-0.931-3.2-2.18-3.2h-7.875c-0.008-2.79-0.189-5.569-2.914-5.569
				c-1.127,0-2.041,0.462-2.426,1.612c-0.506,1.511-0.373,3.278-0.366,4.85c0.002,0.299,0.002,0.6,0.004,0.899
				c0.003,1.03,0.024,2.066,0.029,3.101c0.003,1.114,0.004,2.229,0.004,3.342c0,6.238,5.669,8.005,6.756,8.005
				c1.088,0,5.347,0.101,6.116,0.101c0.77,0,2.978-0.204,2.978-2.438C-59.046,43.551-60.612,42.75-61.669,42.75z"/>
		</g>
	</g>
	<g id="Twiter2">
		<g id="Circle_1_">
			<path fill="#999999" d="M-17,58.267c-11.58,0-21-9.42-21-21s9.42-21,21-21s21,9.42,21,21S-5.42,58.267-17,58.267z M-17,18.267
				c-10.477,0-19,8.523-19,19s8.523,19,19,19s19-8.523,19-19S-6.523,18.267-17,18.267z"/>
		</g>
		<g>
			<path fill="#999999" d="M-8.343,30.531c-0.018-0.009-0.036-0.029-0.054-0.047c-1.08-0.962-2.348-1.421-3.807-1.367l-0.045-0.099
				c0.009-0.009,0.018-0.009,0.027-0.009c1.322-0.289,2.106-0.586,2.34-0.909c0.081-0.262-0.017-0.405-0.306-0.44
				c-0.666,0.081-1.278,0.215-1.827,0.422c0.694-0.422,0.962-0.72,0.81-0.873c-0.684,0.018-1.421,0.352-2.196,1.009
				c0.288-0.468,0.396-0.721,0.324-0.766c-0.369,0.243-0.693,0.504-0.972,0.783c-0.585,0.621-1.054,1.197-1.413,1.719l-0.018,0.045
				c-0.927,1.43-1.574,2.869-1.961,4.336l-0.144,0.109l-0.026,0.026c-0.558-0.666-1.225-1.223-2.025-1.675
				c-0.945-0.584-2.052-1.143-3.33-1.682c-1.394-0.684-2.808-1.251-4.239-1.692c-0.008,1.522,0.774,2.736,2.332,3.618v0.026
				c-0.549-0.01-1.08,0.072-1.593,0.226c0.099,1.412,1.152,2.384,3.15,2.924l-0.01,0.026c-0.782-0.043-1.43,0.217-1.934,0.756
				c0.657,1.225,1.817,1.809,3.5,1.764c-0.333,0.162-0.594,0.34-0.765,0.54c-0.306,0.306-0.405,0.667-0.306,1.08
				c0.36,0.62,1.008,0.907,1.962,0.864l0,0l0.054,0.063c-0.009,0.009-0.018,0.018-0.027,0.026c-1.646,1.62-3.635,2.349-5.967,2.196
				l-0.036,0.019c-1.421-0.009-2.942-0.656-4.589-1.952c1.656,2.267,3.851,3.904,6.569,4.932c3.113,0.981,6.227,1.052,9.332,0.215
				h0.054c3.015-0.829,5.571-2.529,7.676-5.102c0.971-1.35,1.584-2.636,1.827-3.87c1.574,0.054,2.708-0.378,3.41-1.295l-0.018-0.027
				c-0.522,0.179-1.548,0.126-3.069-0.171v-0.163c0-0.008,0-0.008,0.01,0c1.664-0.18,2.646-0.692,2.96-1.539
				c-1.161,0.432-2.304,0.44-3.438,0.037C-6.328,33.122-7.064,31.764-8.343,30.531z"/>
		</g>
	</g>
	<g id="Linkedin">
		<g id="Circle_49_">
			<path fill="#999999" d="M33,58.267c-11.58,0-21-9.42-21-21s9.42-21,21-21s21,9.42,21,21S44.58,58.267,33,58.267z M33,18.267
				c-10.477,0-19,8.523-19,19s8.523,19,19,19s19-8.523,19-19S43.477,18.267,33,18.267z"/>
		</g>
		<g>
			<g>
				<g>
					<path fill="#999999" d="M23.107,25.863h2.051l1.321,4.066h0.128l1.26-4.066h2.069l-2.371,5.951v4.221H25.53v-4.031
						L23.107,25.863z"/>
					<path fill="#999999" d="M30.152,30.244c0-0.596,0.245-1.071,0.736-1.426c0.49-0.354,1.149-0.531,1.977-0.531
						c0.754,0,1.372,0.187,1.853,0.56c0.482,0.374,0.722,0.854,0.722,1.441v3.982c0,0.659-0.236,1.177-0.708,1.553
						c-0.472,0.375-1.122,0.563-1.95,0.563c-0.797,0-1.435-0.194-1.913-0.581s-0.717-0.909-0.717-1.564V30.244z M32.027,34.385
						c0,0.212,0.064,0.375,0.194,0.492c0.13,0.116,0.315,0.173,0.556,0.173c0.247,0,0.443-0.059,0.589-0.177
						c0.145-0.118,0.218-0.28,0.218-0.488v-4.199c0-0.168-0.075-0.304-0.223-0.408c-0.148-0.104-0.343-0.156-0.584-0.156
						c-0.222,0-0.402,0.052-0.542,0.156c-0.139,0.104-0.208,0.24-0.208,0.408V34.385z"/>
					<path fill="#999999" d="M42.105,28.411v7.709H40.28V35.27c-0.337,0.313-0.687,0.553-1.05,0.716
						c-0.364,0.164-0.717,0.246-1.06,0.246c-0.422,0-0.74-0.115-0.954-0.344c-0.214-0.23-0.321-0.574-0.321-1.033v-6.443h1.826
						v5.909c0,0.184,0.039,0.315,0.115,0.397s0.2,0.123,0.371,0.123c0.135,0,0.304-0.054,0.509-0.163
						c0.205-0.108,0.394-0.246,0.565-0.415v-5.852H42.105z"/>
				</g>
				<g>
					<path fill="#999999" d="M23.107,25.863h2.051l1.321,4.066h0.128l1.26-4.066h2.069l-2.371,5.951v4.221H25.53v-4.031
						L23.107,25.863z"/>
					<path fill="#999999" d="M30.152,30.244c0-0.596,0.245-1.071,0.736-1.426c0.49-0.354,1.149-0.531,1.977-0.531
						c0.754,0,1.372,0.187,1.853,0.56c0.482,0.374,0.722,0.854,0.722,1.441v3.982c0,0.659-0.236,1.177-0.708,1.553
						c-0.472,0.375-1.122,0.563-1.95,0.563c-0.797,0-1.435-0.194-1.913-0.581s-0.717-0.909-0.717-1.564V30.244z M32.027,34.385
						c0,0.212,0.064,0.375,0.194,0.492c0.13,0.116,0.315,0.173,0.556,0.173c0.247,0,0.443-0.059,0.589-0.177
						c0.145-0.118,0.218-0.28,0.218-0.488v-4.199c0-0.168-0.075-0.304-0.223-0.408c-0.148-0.104-0.343-0.156-0.584-0.156
						c-0.222,0-0.402,0.052-0.542,0.156c-0.139,0.104-0.208,0.24-0.208,0.408V34.385z"/>
					<path fill="#999999" d="M42.105,28.411v7.709H40.28V35.27c-0.337,0.313-0.687,0.553-1.05,0.716
						c-0.364,0.164-0.717,0.246-1.06,0.246c-0.422,0-0.74-0.115-0.954-0.344c-0.214-0.23-0.321-0.574-0.321-1.033v-6.443h1.826
						v5.909c0,0.184,0.039,0.315,0.115,0.397s0.2,0.123,0.371,0.123c0.135,0,0.304-0.054,0.509-0.163
						c0.205-0.108,0.394-0.246,0.565-0.415v-5.852H42.105z"/>
				</g>
			</g>
			<g>
				<path fill="#999999" d="M43.466,39.792c0-1.335-1.373-2.419-3.064-2.419C37.989,37.292,35.52,37.257,33,37.26
					c-2.519-0.003-4.988,0.032-7.402,0.112c-1.691,0-3.063,1.084-3.063,2.419c-0.102,1.058-0.146,2.116-0.142,3.174
					c-0.004,1.058,0.04,2.116,0.142,3.173c0,1.336,1.372,2.419,3.063,2.419c2.414,0.081,4.884,0.116,7.402,0.112
					c2.52,0.004,4.989-0.032,7.402-0.112c1.691,0,3.064-1.083,3.064-2.419c0.101-1.058,0.146-2.116,0.141-3.173
					C43.612,41.908,43.567,40.85,43.466,39.792z"/>
				<path fill="#FFFFFF" d="M28.485,39.109h-4.448v1.088h1.499v6.409h1.45v-6.409h1.5V39.109z M30.854,45.274
					c-0.121,0.121-0.253,0.22-0.398,0.298s-0.264,0.117-0.359,0.117c-0.121,0-0.208-0.029-0.262-0.088
					c-0.054-0.059-0.081-0.153-0.081-0.285v-4.24h-1.287v4.623c0,0.329,0.075,0.576,0.227,0.741
					c0.151,0.165,0.375,0.247,0.672,0.247c0.242,0,0.49-0.059,0.748-0.176c0.256-0.118,0.502-0.289,0.74-0.514v0.61h1.287v-5.531
					h-1.287V45.274z M35.842,41.006c-0.2,0-0.397,0.043-0.593,0.132c-0.194,0.088-0.379,0.216-0.552,0.385v-2.414h-1.299v7.498
					h1.299v-0.425c0.169,0.168,0.353,0.293,0.55,0.374c0.197,0.081,0.421,0.121,0.673,0.121c0.381,0,0.672-0.104,0.874-0.312
					c0.202-0.209,0.302-0.51,0.302-0.903v-3.068c0-0.451-0.107-0.796-0.322-1.032C36.56,41.125,36.249,41.006,35.842,41.006z
					 M35.771,45.311c0,0.175-0.037,0.303-0.111,0.38c-0.074,0.078-0.189,0.117-0.347,0.117c-0.109,0-0.213-0.02-0.311-0.06
					c-0.099-0.04-0.2-0.105-0.305-0.194v-3.447c0.087-0.076,0.176-0.132,0.266-0.169c0.089-0.036,0.181-0.054,0.272-0.054
					c0.174,0,0.308,0.048,0.4,0.146c0.092,0.097,0.137,0.238,0.137,0.425V45.311z M41.854,43.971v-1.408
					c0-0.524-0.158-0.927-0.475-1.207c-0.316-0.28-0.769-0.419-1.357-0.419c-0.576,0-1.046,0.151-1.409,0.453
					c-0.364,0.302-0.546,0.693-0.546,1.173v2.483c0,0.532,0.166,0.95,0.497,1.254c0.332,0.304,0.785,0.457,1.361,0.457
					c0.641,0,1.123-0.144,1.445-0.431c0.322-0.287,0.484-0.714,0.484-1.28V44.63h-1.325v0.385c0,0.325-0.042,0.536-0.127,0.63
					c-0.085,0.095-0.234,0.143-0.448,0.143c-0.205,0-0.35-0.056-0.435-0.168c-0.084-0.113-0.127-0.314-0.127-0.604v-1.044H41.854z
					 M39.392,42.553c0-0.232,0.045-0.398,0.134-0.498s0.236-0.15,0.441-0.15c0.195,0,0.338,0.05,0.428,0.15s0.134,0.266,0.134,0.498
					v0.559h-1.137V42.553z"/>
			</g>
		</g>
	</g>
</g>
</svg>
